<svg width="176" height="48" viewBox="0 0 176 48" fill="none" xmlns="http://www.w3.org/2000/svg">
<path d="M43.9498 20.4701C43.9498 20.7092 43.9815 20.9236 44.0447 21.1135C44.108 21.2963 44.1783 21.5002 44.2557 21.7252C44.3049 21.8307 44.3471 21.9291 44.3822 22.0205C44.4174 22.1049 44.4596 22.1822 44.5088 22.2525C44.565 22.3158 44.6354 22.365 44.7197 22.4002C44.8111 22.4354 44.9307 22.4529 45.0783 22.4529H45.1311C45.1451 22.4459 45.1732 22.4318 45.2154 22.4107C45.2647 22.3826 45.3139 22.358 45.3631 22.3369C45.4123 22.3088 45.458 22.2842 45.5002 22.2631C45.5424 22.235 45.567 22.2209 45.574 22.2209C45.5951 22.2139 45.6373 22.2068 45.7006 22.1998C45.7639 22.1928 45.8307 22.1857 45.901 22.1787C45.9783 22.1717 46.0486 22.1646 46.1119 22.1576C46.1752 22.1506 46.2139 22.1471 46.2279 22.1471C46.3053 22.14 46.4002 22.1084 46.5127 22.0521C46.6252 21.9959 46.7377 21.9326 46.8502 21.8623C46.9627 21.785 47.0682 21.7076 47.1666 21.6303C47.265 21.5459 47.3424 21.4721 47.3986 21.4088C47.4619 21.3525 47.5111 21.2998 47.5463 21.2506C47.5815 21.2014 47.6131 21.1521 47.6412 21.1029C47.6693 21.0467 47.6975 20.9939 47.7256 20.9447C47.7537 20.8885 47.7959 20.8252 47.8522 20.7549C47.8522 20.7408 47.8838 20.7057 47.9471 20.6494C48.0174 20.5861 48.0525 20.5475 48.0525 20.5334C48.0807 20.5053 48.1123 20.4561 48.1475 20.3857C48.1826 20.3084 48.2072 20.2557 48.2213 20.2275C48.2213 20.2135 48.2248 20.1678 48.2318 20.0904C48.2459 20.0131 48.26 19.9252 48.274 19.8268C48.2951 19.7213 48.3127 19.6193 48.3268 19.5209C48.3408 19.4225 48.3549 19.3486 48.369 19.2994V19.1834V19.0779C48.369 19.0568 48.3654 19.0252 48.3584 18.983C48.3514 18.9408 48.3443 18.8951 48.3373 18.8459C48.3303 18.7967 48.3232 18.7545 48.3162 18.7193C48.3092 18.6771 48.3022 18.6525 48.2951 18.6455C48.267 18.5471 48.2248 18.4838 48.1686 18.4557C48.1123 18.4205 48.0561 18.3607 47.9998 18.2764C47.9857 18.2623 47.9611 18.2131 47.926 18.1287C47.8908 18.0443 47.8662 17.9951 47.8522 17.9811C47.8311 17.96 47.7924 17.9213 47.7361 17.865C47.6869 17.8088 47.6307 17.749 47.5674 17.6857C47.5041 17.6225 47.4443 17.5627 47.3881 17.5064C47.3318 17.4432 47.2932 17.401 47.2721 17.3799C47.1877 17.3166 47.0576 17.2428 46.8818 17.1584C46.7131 17.074 46.5303 16.9967 46.3334 16.9264C46.1436 16.849 45.9607 16.7857 45.785 16.7365C45.6092 16.6803 45.4791 16.6521 45.3947 16.6521C45.2119 16.6521 45.0502 16.6592 44.9096 16.6732C44.769 16.6803 44.6002 16.6979 44.4033 16.726C44.3471 16.8244 44.3049 16.9264 44.2768 17.0318C44.2486 17.1373 44.2275 17.2463 44.2135 17.3588C44.2065 17.4713 44.2029 17.5838 44.2029 17.6963C44.2029 17.8088 44.1994 17.9213 44.1924 18.0338C44.1783 18.1955 44.1326 18.3396 44.0553 18.4662C43.985 18.5857 43.9498 18.7123 43.9498 18.8459C43.9498 18.9865 43.9639 19.1166 43.992 19.2361C44.0272 19.3557 44.0447 19.4857 44.0447 19.6264C44.0447 19.774 44.0272 19.9146 43.992 20.0482C43.9639 20.1818 43.9498 20.3225 43.9498 20.4701ZM44.0447 29.1186L44.7197 29.5299C44.7197 29.558 44.7549 29.5721 44.8252 29.5721C44.9729 29.5721 45.1275 29.5615 45.2893 29.5404C45.451 29.5193 45.5951 29.4982 45.7217 29.4771C45.792 29.4701 45.8799 29.4596 45.9854 29.4455C46.0908 29.4244 46.1928 29.4068 46.2912 29.3928C46.3897 29.3787 46.474 29.3646 46.5443 29.3506C46.6217 29.3365 46.6639 29.3295 46.6709 29.3295C46.692 29.3295 46.7272 29.3119 46.7764 29.2768C46.8256 29.2346 46.8783 29.1924 46.9346 29.1502C46.9908 29.108 47.0436 29.0693 47.0928 29.0342C47.142 28.992 47.1772 28.9709 47.1982 28.9709C47.36 28.8584 47.5252 28.7283 47.694 28.5807C47.8697 28.426 48.0279 28.2607 48.1686 28.085C48.3092 27.9092 48.4252 27.7193 48.5166 27.5154C48.608 27.3115 48.6537 27.0971 48.6537 26.8721V26.7561C48.6537 26.749 48.6397 26.7068 48.6115 26.6295C48.5904 26.5451 48.5799 26.4959 48.5799 26.4818V25.7436C48.5588 25.7014 48.5377 25.6627 48.5166 25.6275C48.5025 25.5924 48.485 25.5607 48.4639 25.5326C48.4498 25.5045 48.4357 25.4834 48.4217 25.4693C48.4217 25.4482 48.4111 25.4307 48.39 25.4166C48.376 25.4025 48.369 25.3885 48.369 25.3744C48.3549 25.3604 48.3338 25.3252 48.3057 25.2689C48.2775 25.2127 48.2459 25.1529 48.2107 25.0896C48.1826 25.0193 48.151 24.9561 48.1158 24.8998C48.0877 24.8436 48.0666 24.8084 48.0525 24.7943C48.0525 24.7873 48.042 24.7697 48.0209 24.7416C47.9998 24.7135 47.9717 24.6818 47.9365 24.6467C47.9084 24.6045 47.8768 24.5623 47.8416 24.5201C47.8135 24.4779 47.7889 24.4463 47.7678 24.4252C47.7115 24.3479 47.6377 24.2881 47.5463 24.2459C47.4619 24.1967 47.3881 24.1334 47.3248 24.0561C47.3178 24.049 47.3037 24.0314 47.2826 24.0033C47.2686 23.9682 47.2475 23.9365 47.2193 23.9084C47.1982 23.8732 47.1772 23.8416 47.1561 23.8135C47.142 23.7854 47.1315 23.7713 47.1244 23.7713C46.9205 23.6096 46.6815 23.4971 46.4072 23.4338C46.14 23.3705 45.8869 23.3037 45.6479 23.2334C45.6338 23.2334 45.5986 23.2264 45.5424 23.2123C45.4861 23.1982 45.4229 23.1842 45.3525 23.1701C45.2893 23.1561 45.2295 23.142 45.1732 23.1279C45.117 23.1139 45.0854 23.1068 45.0783 23.1068C45.0643 23.1068 45.015 23.1068 44.9307 23.1068C44.8463 23.0998 44.7795 23.0963 44.7303 23.0963C44.7022 23.0963 44.6459 23.0998 44.5615 23.1068C44.4842 23.1068 44.4315 23.1068 44.4033 23.1068C44.3963 23.1209 44.3717 23.1561 44.3295 23.2123C44.2943 23.2686 44.2697 23.3002 44.2557 23.3072C44.2416 23.3354 44.2205 23.374 44.1924 23.4232C44.1713 23.4725 44.1502 23.5217 44.1291 23.5709C44.108 23.6201 44.0869 23.6658 44.0658 23.708C44.0518 23.7432 44.0447 23.7643 44.0447 23.7713C44.0377 23.7924 44.0307 23.8381 44.0236 23.9084C44.0166 23.9787 44.0096 24.0561 44.0025 24.1404C43.9955 24.2178 43.985 24.2916 43.9709 24.3619C43.9639 24.4322 43.9568 24.4779 43.9498 24.499C43.9357 24.6818 43.9111 24.8611 43.876 25.0369C43.8408 25.2127 43.8232 25.399 43.8232 25.5959V25.8279C43.8232 25.842 43.8268 25.8771 43.8338 25.9334C43.8408 25.9826 43.8479 26.0424 43.8549 26.1127C43.869 26.176 43.8795 26.2357 43.8865 26.292C43.8936 26.3482 43.8971 26.3834 43.8971 26.3975C43.8971 26.4889 43.9006 26.6436 43.9076 26.8615C43.9147 27.0795 43.9182 27.308 43.9182 27.5471C43.9182 27.7932 43.9147 28.0217 43.9076 28.2326C43.9006 28.4436 43.8971 28.5912 43.8971 28.6756L44.0447 29.1186ZM39.6467 30.3525C39.5623 30.3385 39.492 30.3033 39.4357 30.2471C39.3795 30.1908 39.3514 30.124 39.3514 30.0467C39.3514 29.9693 39.3584 29.8779 39.3725 29.7725C39.3865 29.66 39.4217 29.5791 39.4779 29.5299C39.499 29.5299 39.5342 29.5264 39.5834 29.5193C39.6397 29.5053 39.6854 29.4912 39.7205 29.4771C39.7486 29.4771 39.7943 29.4736 39.8576 29.4666C39.9279 29.4596 40.0018 29.4525 40.0791 29.4455C40.1635 29.4314 40.2373 29.4209 40.3006 29.4139C40.3709 29.4068 40.4201 29.4033 40.4482 29.4033H41.176C41.2182 29.4033 41.2779 29.3963 41.3553 29.3822C41.4326 29.3611 41.5065 29.3365 41.5768 29.3084C41.6541 29.2803 41.7209 29.2521 41.7772 29.224C41.8404 29.1889 41.8826 29.1537 41.9037 29.1186C41.9107 29.0975 41.9178 29.0588 41.9248 29.0025C41.9389 28.9393 41.9494 28.876 41.9565 28.8127C41.9705 28.7494 41.9811 28.6896 41.9881 28.6334C41.9951 28.5701 41.9986 28.5279 41.9986 28.5068C41.9986 28.4998 41.9811 28.4576 41.9459 28.3803C41.9178 28.2959 41.9037 28.2502 41.9037 28.2432C41.9037 28.2361 41.9072 28.2115 41.9143 28.1693C41.9283 28.1201 41.9389 28.0709 41.9459 28.0217C41.96 27.9654 41.9705 27.9162 41.9775 27.874C41.9916 27.8248 41.9986 27.7932 41.9986 27.7791V27.4205C41.9986 27.1041 41.9705 26.7982 41.9143 26.5029C41.858 26.2076 41.8299 25.9053 41.8299 25.5959V25.5221C41.8299 25.515 41.8334 25.4939 41.8404 25.4588C41.8475 25.4166 41.8545 25.3779 41.8615 25.3428C41.8756 25.3006 41.8861 25.2619 41.8932 25.2268C41.9002 25.1916 41.9037 25.167 41.9037 25.1529V24.7311V23.6764C41.9107 23.6553 41.9213 23.6096 41.9354 23.5393C41.9565 23.4619 41.9775 23.3775 41.9986 23.2861C42.0197 23.1947 42.0373 23.1104 42.0514 23.033C42.0654 22.9486 42.0725 22.8959 42.0725 22.8748C42.0725 22.8607 42.0584 22.815 42.0303 22.7377C42.0092 22.6604 41.9986 22.6076 41.9986 22.5795V22.5057V22.2947C41.9846 22.2807 41.9565 22.2455 41.9143 22.1893C41.8721 22.133 41.844 22.1014 41.8299 22.0943V22.0311V22.0205C41.844 21.9854 41.8721 21.9326 41.9143 21.8623C41.9565 21.785 41.9846 21.7393 41.9986 21.7252C42.0268 21.5635 42.0408 21.4123 42.0408 21.2717C42.0479 21.124 42.0514 20.9693 42.0514 20.8076C42.0514 20.6248 42.0549 20.4455 42.0619 20.2697C42.076 20.0869 42.1217 19.9076 42.199 19.7318C42.199 19.6967 42.199 19.6334 42.199 19.542C42.2061 19.4506 42.2096 19.3557 42.2096 19.2572C42.2096 19.1518 42.2096 19.0533 42.2096 18.9619C42.2166 18.8705 42.2201 18.8072 42.2201 18.7721C42.2201 18.7088 42.2166 18.6279 42.2096 18.5295C42.2096 18.424 42.2096 18.3221 42.2096 18.2236C42.2096 18.1182 42.2061 18.0268 42.199 17.9494C42.199 17.8721 42.199 17.8299 42.199 17.8229C42.199 17.8088 42.1955 17.7771 42.1885 17.7279C42.1885 17.6717 42.185 17.6154 42.1779 17.5592C42.1709 17.4959 42.1604 17.4361 42.1463 17.3799C42.1393 17.3236 42.1322 17.2814 42.1252 17.2533C42.1111 17.1619 42.0936 17.074 42.0725 16.9896C42.0584 16.9053 42.0022 16.842 41.9037 16.7998C41.8615 16.7998 41.7807 16.7963 41.6611 16.7893C41.5416 16.7822 41.415 16.7752 41.2815 16.7682C41.1549 16.7611 41.0318 16.7541 40.9123 16.7471C40.7928 16.74 40.7119 16.733 40.6697 16.726C40.6416 16.726 40.5994 16.7225 40.5432 16.7154C40.494 16.7084 40.4412 16.7014 40.385 16.6943C40.3287 16.6873 40.276 16.6803 40.2268 16.6732C40.1846 16.6662 40.16 16.6592 40.1529 16.6521C40.1389 16.6451 40.1107 16.6346 40.0686 16.6205C40.0334 16.5994 39.9912 16.5783 39.942 16.5572C39.8998 16.5291 39.8576 16.5045 39.8154 16.4834C39.7732 16.4623 39.7416 16.4447 39.7205 16.4307C39.6854 16.4166 39.6397 16.3814 39.5834 16.3252C39.5342 16.2689 39.499 16.2303 39.4779 16.2092V16.1564C39.4779 16.0299 39.5096 15.9104 39.5729 15.7979C39.6432 15.6854 39.7346 15.6045 39.8471 15.5553H40.8807C41.7315 15.5553 42.5717 15.5834 43.4014 15.6396C44.2311 15.6959 45.0713 15.724 45.9221 15.724C45.9643 15.724 46.0381 15.724 46.1436 15.724C46.249 15.717 46.358 15.7135 46.4705 15.7135C46.59 15.7135 46.7025 15.7135 46.808 15.7135C46.9135 15.7064 46.9873 15.7029 47.0295 15.7029C47.0647 15.6889 47.1068 15.6748 47.1561 15.6607C47.2053 15.6396 47.244 15.6291 47.2721 15.6291C47.2791 15.6291 47.3037 15.6432 47.3459 15.6713C47.367 15.6854 47.3846 15.6959 47.3986 15.7029C47.4197 15.71 47.4584 15.7205 47.5147 15.7346C47.5779 15.7486 47.6412 15.7627 47.7045 15.7768C47.7748 15.7908 47.8381 15.8049 47.8943 15.8189C47.9506 15.833 47.9857 15.8436 47.9998 15.8506C48.0068 15.8506 48.0244 15.8576 48.0525 15.8717C48.0807 15.8857 48.1123 15.9033 48.1475 15.9244C48.1826 15.9455 48.2143 15.9631 48.2424 15.9771C48.2705 15.9912 48.2881 15.9982 48.2951 15.9982C48.5201 16.0967 48.7311 16.1951 48.9279 16.2936C49.1248 16.385 49.3322 16.5045 49.5502 16.6521C49.6135 16.6943 49.6592 16.733 49.6873 16.7682C49.7154 16.8033 49.74 16.842 49.7611 16.8842C49.7822 16.9193 49.8033 16.9615 49.8244 17.0107C49.8455 17.0529 49.8772 17.1092 49.9193 17.1795C50.0248 17.3834 50.1127 17.5486 50.183 17.6752C50.2604 17.8018 50.3201 17.9283 50.3623 18.0549C50.4115 18.1814 50.4467 18.3256 50.4678 18.4873C50.4889 18.642 50.4994 18.8459 50.4994 19.099V19.3311C50.4994 19.5982 50.4854 19.8865 50.4572 20.1959C50.4361 20.5053 50.3764 20.7725 50.2779 20.9975C50.2639 21.0045 50.2357 21.0361 50.1936 21.0924C50.1584 21.1486 50.1197 21.2084 50.0775 21.2717C50.0424 21.335 50.0072 21.3947 49.9721 21.451C49.9369 21.5072 49.9193 21.5424 49.9193 21.5564C49.8842 21.6127 49.8525 21.6654 49.8244 21.7146C49.8033 21.7639 49.7822 21.8096 49.7611 21.8518C49.74 21.8939 49.7119 21.9361 49.6768 21.9783C49.6486 22.0205 49.6065 22.0592 49.5502 22.0943C49.4377 22.1576 49.3217 22.2174 49.2022 22.2736C49.0826 22.3229 48.9631 22.3756 48.8436 22.4318C48.7311 22.4881 48.6186 22.5514 48.5061 22.6217C48.4006 22.692 48.3057 22.7764 48.2213 22.8748C48.2635 22.9521 48.3162 23.0119 48.3795 23.0541C48.4498 23.0893 48.5201 23.1209 48.5904 23.149C48.6678 23.1701 48.7416 23.1912 48.8119 23.2123C48.8893 23.2334 48.9596 23.265 49.0229 23.3072C49.1143 23.3846 49.2092 23.4514 49.3076 23.5076C49.4131 23.5639 49.5115 23.6201 49.6029 23.6764C49.849 23.8662 50.0529 24.1053 50.2147 24.3936C50.3764 24.6818 50.5205 24.9596 50.6471 25.2268C50.7596 25.4658 50.8475 25.6979 50.9107 25.9229C50.9811 26.1479 51.0162 26.3975 51.0162 26.6717V26.7561C50.9459 27.0514 50.8545 27.3678 50.742 27.7053C50.6295 28.0357 50.4959 28.3346 50.3412 28.6018C50.292 28.6791 50.2463 28.7424 50.2041 28.7916C50.1619 28.8408 50.1162 28.89 50.067 28.9393C50.0248 28.9814 49.9756 29.0271 49.9193 29.0764C49.8701 29.1256 49.8139 29.1854 49.7506 29.2557C49.7365 29.2697 49.7084 29.3049 49.6662 29.3611C49.624 29.4104 49.5783 29.4631 49.5291 29.5193C49.4869 29.5756 49.4447 29.6283 49.4025 29.6775C49.3604 29.7268 49.3322 29.7584 49.3182 29.7725C49.3041 29.7865 49.2584 29.8111 49.1811 29.8463C49.1107 29.8744 49.058 29.9025 49.0229 29.9307C48.9807 29.9447 48.9104 29.9693 48.8119 30.0045C48.7135 30.0326 48.608 30.0678 48.4955 30.11C48.39 30.1451 48.2881 30.1803 48.1897 30.2154C48.0982 30.2506 48.035 30.2787 47.9998 30.2998C47.9295 30.2998 47.8029 30.2998 47.6201 30.2998C47.4443 30.3068 47.2545 30.3139 47.0506 30.3209C46.8467 30.3279 46.6533 30.3314 46.4705 30.3314C46.2947 30.3385 46.1717 30.3455 46.1014 30.3525C46.0803 30.3525 46.0275 30.3561 45.9432 30.3631C45.8658 30.3701 45.7815 30.3771 45.69 30.3842C45.5986 30.3982 45.5107 30.4088 45.4264 30.4158C45.349 30.4229 45.2998 30.4264 45.2787 30.4264H45.2049C45.1627 30.4264 45.1275 30.4229 45.0994 30.4158C45.0713 30.4088 45.0361 30.3877 44.994 30.3525H44.7936C44.5615 30.3525 44.3365 30.3385 44.1186 30.3104C43.9076 30.2822 43.6861 30.2682 43.4541 30.2682C43.3275 30.2682 43.2045 30.2752 43.085 30.2893C42.9725 30.3033 42.8529 30.3244 42.7264 30.3525C42.7123 30.3525 42.6842 30.3631 42.642 30.3842C42.5998 30.4123 42.5752 30.4264 42.5682 30.4264H42.5471C42.4627 30.4264 42.3818 30.4123 42.3045 30.3842C42.2272 30.3631 42.1498 30.3525 42.0725 30.3525C41.9107 30.3525 41.7561 30.3631 41.6084 30.3842C41.4678 30.4123 41.3166 30.4264 41.1549 30.4264C40.9018 30.4264 40.6557 30.4193 40.4166 30.4053C40.1846 30.3982 39.9279 30.3807 39.6467 30.3525ZM54.1596 24.8787V24.7205C54.1596 24.6221 54.1631 24.5025 54.1702 24.3619C54.1772 24.2143 54.1807 24.0701 54.1807 23.9295C54.1877 23.7818 54.1948 23.6553 54.2018 23.5498C54.2088 23.4373 54.2123 23.3635 54.2123 23.3283V23.0752C54.2123 22.9838 54.2018 22.8994 54.1807 22.8221C54.1666 22.7447 54.1596 22.6568 54.1596 22.5584C54.1596 22.4529 54.1666 22.351 54.1807 22.2525C54.2018 22.1471 54.2123 22.0381 54.2123 21.9256V21.8729C54.2123 21.8518 54.2018 21.799 54.1807 21.7146C54.1666 21.6303 54.1596 21.5775 54.1596 21.5564C54.1596 21.5564 54.1561 21.5389 54.1491 21.5037C54.1491 21.4615 54.1455 21.4158 54.1385 21.3666C54.1385 21.3104 54.135 21.2576 54.128 21.2084C54.128 21.1521 54.128 21.11 54.128 21.0818C54.128 20.892 54.142 20.7373 54.1702 20.6178C54.1983 20.4982 54.2123 20.3506 54.2123 20.1748C54.2123 20.0623 54.2018 19.9498 54.1807 19.8373C54.1666 19.7178 54.1596 19.5912 54.1596 19.4576C54.1596 19.2959 54.1666 19.1412 54.1807 18.9936C54.2018 18.8389 54.2123 18.6596 54.2123 18.4557C54.2123 18.2307 54.2088 18.0303 54.2018 17.8545C54.2018 17.6787 54.1877 17.4713 54.1596 17.2322C54.0752 17.1268 53.9592 17.0459 53.8116 16.9896C53.6709 16.9264 53.5338 16.8701 53.4002 16.8209C53.2666 16.7717 53.1506 16.7189 53.0522 16.6627C52.9537 16.6064 52.9045 16.5291 52.9045 16.4307V16.3568C52.9045 16.3146 52.9151 16.2479 52.9362 16.1564C52.9643 16.065 52.9784 16.0123 52.9784 15.9982C52.9854 15.9631 53.017 15.935 53.0733 15.9139C53.1366 15.8857 53.1752 15.8646 53.1893 15.8506C53.4565 15.7732 53.7237 15.7275 53.9909 15.7135C54.258 15.6924 54.5287 15.6818 54.803 15.6818H55.6151C55.7276 15.6818 55.8366 15.6713 55.942 15.6502C56.0545 15.6221 56.167 15.608 56.2795 15.608C56.3217 15.608 56.3991 15.6115 56.5116 15.6186C56.6311 15.6186 56.7577 15.6186 56.8912 15.6186C57.0248 15.6186 57.1514 15.6221 57.2709 15.6291C57.3905 15.6291 57.4784 15.6291 57.5346 15.6291C57.6541 15.6502 57.7877 15.6924 57.9354 15.7557C58.083 15.8119 58.2096 15.8717 58.3151 15.935C58.3502 15.9701 58.3713 16.0088 58.3784 16.051C58.3854 16.0861 58.3889 16.1213 58.3889 16.1564V16.2514C58.3889 16.3779 58.3678 16.4588 58.3256 16.4939C58.2834 16.5291 58.2096 16.5889 58.1041 16.6732C58.0549 16.6873 57.9846 16.7189 57.8932 16.7682C57.8018 16.8104 57.7491 16.8314 57.735 16.8314C57.7209 16.8455 57.6752 16.8631 57.5979 16.8842C57.5276 16.8982 57.4748 16.9123 57.4397 16.9264C57.4256 16.9264 57.3975 16.9299 57.3553 16.9369C57.3131 16.9439 57.2674 16.9545 57.2182 16.9686C57.169 16.9756 57.1233 16.9861 57.0811 17.0002C57.0389 17.0143 57.0143 17.0248 57.0073 17.0318C56.9229 17.067 56.8455 17.1232 56.7752 17.2006C56.7049 17.2779 56.6416 17.3693 56.5854 17.4748C56.5291 17.5732 56.4834 17.6787 56.4483 17.7912C56.4202 17.8967 56.4061 17.9916 56.4061 18.076C56.4061 18.2025 56.4131 18.3186 56.4272 18.424C56.4412 18.5225 56.4623 18.642 56.4905 18.7826V21.9994C56.4483 22.0979 56.4237 22.1928 56.4166 22.2842C56.4096 22.3756 56.4061 22.4811 56.4061 22.6006V22.8959C56.4412 23.4021 56.4905 23.9225 56.5537 24.4568C56.617 24.9912 56.7436 25.4975 56.9334 25.9756C56.9334 25.9896 56.958 26.0283 57.0073 26.0916C57.0565 26.1479 57.0811 26.183 57.0811 26.1971C57.0881 26.1971 57.0987 26.2146 57.1127 26.2498C57.1268 26.285 57.1409 26.3236 57.1549 26.3658C57.169 26.408 57.183 26.4502 57.1971 26.4924C57.2112 26.5275 57.2217 26.5486 57.2287 26.5557C57.2709 26.6752 57.3307 26.7877 57.408 26.8932C57.4854 26.9916 57.5452 27.1006 57.5873 27.2201C57.5873 27.2271 57.5909 27.2447 57.5979 27.2729C57.6049 27.301 57.612 27.3326 57.619 27.3678C57.626 27.3959 57.633 27.424 57.6401 27.4521C57.6471 27.4732 57.6541 27.4873 57.6612 27.4943C57.6963 27.5787 57.735 27.6455 57.7772 27.6947C57.8264 27.7439 57.8756 27.7861 57.9248 27.8213C57.9811 27.8494 58.0409 27.8775 58.1041 27.9057C58.1674 27.9338 58.2377 27.9725 58.3151 28.0217L58.3889 28.0955C58.4241 28.1025 58.4662 28.1166 58.5155 28.1377C58.5647 28.1588 58.6034 28.1693 58.6315 28.1693C58.6596 28.1693 58.7334 28.1764 58.853 28.1904C58.9725 28.2045 59.0991 28.2221 59.2327 28.2432C59.3733 28.2572 59.5034 28.2713 59.6229 28.2854C59.7495 28.2994 59.8268 28.3064 59.8549 28.3064C59.862 28.3064 59.8971 28.3205 59.9604 28.3486C60.0307 28.3697 60.0729 28.3803 60.087 28.3803C60.1221 28.3943 60.1713 28.4119 60.2346 28.433C60.2979 28.4471 60.3612 28.4611 60.4245 28.4752C60.4877 28.4893 60.544 28.5033 60.5932 28.5174C60.6424 28.5244 60.6705 28.5279 60.6776 28.5279C60.7268 28.5209 60.776 28.5104 60.8252 28.4963C60.8604 28.4893 60.8991 28.4822 60.9412 28.4752C60.9834 28.4682 61.0151 28.4611 61.0362 28.4541C61.233 28.4119 61.4123 28.3521 61.5741 28.2748C61.7428 28.1904 61.901 28.099 62.0487 28.0006C62.1963 27.8951 62.3405 27.7826 62.4811 27.6631C62.6287 27.5436 62.7799 27.4205 62.9346 27.2939C63.033 27.2096 63.1491 27.1287 63.2827 27.0514C63.4233 26.974 63.5252 26.8756 63.5885 26.7561C63.6026 26.7561 63.6166 26.7314 63.6307 26.6822C63.6518 26.633 63.6694 26.5908 63.6834 26.5557C63.7116 26.4502 63.7467 26.3271 63.7889 26.1865C63.8381 26.0459 63.8698 25.9193 63.8838 25.8068C63.8909 25.7928 63.8979 25.7611 63.9049 25.7119C63.919 25.6627 63.9295 25.61 63.9366 25.5537C63.9436 25.4975 63.9471 25.4447 63.9471 25.3955C63.9541 25.3463 63.9577 25.3146 63.9577 25.3006C63.9647 25.2936 63.9787 25.2689 63.9998 25.2268C64.028 25.1846 64.0561 25.1424 64.0842 25.1002C64.1123 25.051 64.137 25.0053 64.158 24.9631C64.1791 24.9209 64.1897 24.8928 64.1897 24.8787C64.1967 24.8576 64.2037 24.8119 64.2108 24.7416C64.2178 24.6713 64.2248 24.5939 64.2319 24.5096C64.2389 24.4252 64.2424 24.3408 64.2424 24.2564C64.2495 24.1721 64.253 24.1053 64.253 24.0561C64.253 24.049 64.253 24.0209 64.253 23.9717C64.26 23.9154 64.2635 23.8521 64.2635 23.7818C64.2705 23.7115 64.2741 23.6447 64.2741 23.5814C64.2811 23.5111 64.2846 23.4584 64.2846 23.4232C64.2846 23.1982 64.267 22.9697 64.2319 22.7377C64.2037 22.5057 64.1897 22.2771 64.1897 22.0521V21.799C64.1897 21.7428 64.1897 21.69 64.1897 21.6408C64.1967 21.5846 64.2178 21.5389 64.253 21.5037C64.2811 21.2014 64.3022 20.8779 64.3162 20.5334C64.3303 20.1889 64.3373 19.8549 64.3373 19.5314C64.3373 19.4963 64.3373 19.4506 64.3373 19.3943C64.3373 19.3381 64.3338 19.2994 64.3268 19.2783C64.3268 19.2713 64.3198 19.2432 64.3057 19.1939C64.2916 19.1447 64.2741 19.092 64.253 19.0357C64.2389 18.9795 64.2248 18.9268 64.2108 18.8775C64.1967 18.8283 64.1897 18.7967 64.1897 18.7826C64.1827 18.7475 64.1756 18.6842 64.1686 18.5928C64.1616 18.5014 64.158 18.4064 64.158 18.308C64.158 18.2096 64.1616 18.1146 64.1686 18.0232C64.1756 17.9248 64.1827 17.858 64.1897 17.8229C64.1545 17.7455 64.1088 17.6436 64.0526 17.517C63.9963 17.3904 63.9225 17.2955 63.8311 17.2322C63.7959 17.2111 63.7537 17.1865 63.7045 17.1584C63.6553 17.1303 63.6026 17.1021 63.5463 17.074C63.4971 17.0389 63.4479 17.0107 63.3987 16.9896C63.3565 16.9686 63.3248 16.958 63.3037 16.958C63.2897 16.958 63.258 16.9545 63.2088 16.9475C63.1596 16.9334 63.1034 16.9229 63.0401 16.9158C62.9838 16.9088 62.9311 16.9018 62.8819 16.8947C62.8327 16.8807 62.801 16.8736 62.787 16.8736C62.7799 16.8736 62.7588 16.8666 62.7237 16.8525C62.6955 16.8314 62.6745 16.8139 62.6604 16.7998C62.6182 16.7646 62.5514 16.7119 62.46 16.6416C62.3686 16.5713 62.2842 16.5256 62.2069 16.5045C62.1647 16.4904 62.112 16.4799 62.0487 16.4729C61.9924 16.4658 61.9362 16.4553 61.8799 16.4412C61.8307 16.4201 61.785 16.392 61.7428 16.3568C61.7077 16.3146 61.6901 16.2549 61.6901 16.1775C61.6901 16.1424 61.7077 16.0967 61.7428 16.0404C61.778 15.9771 61.8237 15.9174 61.8799 15.8611C61.9362 15.8049 61.9995 15.7557 62.0698 15.7135C62.1401 15.6713 62.2104 15.6502 62.2807 15.6502C62.5057 15.6502 62.678 15.6467 62.7975 15.6396C62.9241 15.6326 63.0436 15.6291 63.1561 15.6291H64.485C64.492 15.6291 64.5202 15.6256 64.5694 15.6186C64.6186 15.6115 64.6713 15.6045 64.7276 15.5975C64.7909 15.5904 64.8436 15.5834 64.8858 15.5764C64.935 15.5623 64.9666 15.5482 64.9807 15.5342H65.1284C65.2198 15.5342 65.3077 15.5518 65.392 15.5869C65.4764 15.615 65.5643 15.6291 65.6557 15.6291C65.7682 15.6291 65.8737 15.615 65.9721 15.5869C66.0776 15.5518 66.1901 15.5342 66.3096 15.5342C66.5979 15.5342 66.8721 15.5939 67.1323 15.7135C67.3924 15.826 67.6104 15.9912 67.7862 16.2092C67.7862 16.2232 67.7932 16.2619 67.8073 16.3252C67.8284 16.3814 67.8459 16.4166 67.86 16.4307V16.4834V16.5045C67.8459 16.5186 67.8284 16.5467 67.8073 16.5889C67.7932 16.624 67.7862 16.6521 67.7862 16.6732C67.758 16.6873 67.7088 16.7119 67.6385 16.7471C67.5682 16.7822 67.4944 16.8174 67.417 16.8525C67.3397 16.8877 67.2623 16.9229 67.185 16.958C67.1147 16.9932 67.0655 17.0178 67.0373 17.0318C66.9459 17.06 66.8545 17.0775 66.7631 17.0846C66.6717 17.0846 66.5803 17.0916 66.4889 17.1057C66.4045 17.1197 66.3202 17.1479 66.2358 17.19C66.1584 17.2322 66.0846 17.3025 66.0143 17.401C66.0073 17.4361 65.9967 17.4994 65.9827 17.5908C65.9686 17.6822 65.9545 17.7842 65.9405 17.8967C65.9264 18.0092 65.9123 18.1146 65.8983 18.2131C65.8842 18.3115 65.8772 18.3818 65.8772 18.424V19.1518C65.8772 19.1729 65.8737 19.215 65.8666 19.2783C65.8596 19.3416 65.8491 19.4084 65.835 19.4787C65.828 19.549 65.8209 19.6158 65.8139 19.6791C65.8069 19.7424 65.8034 19.7846 65.8034 19.8057C65.8034 19.8197 65.8139 19.8584 65.835 19.9217C65.8631 19.985 65.8772 20.0271 65.8772 20.0482V20.1326V20.2486C65.8772 20.2697 65.8737 20.3119 65.8666 20.3752C65.8596 20.4385 65.8491 20.5053 65.835 20.5756C65.828 20.6459 65.8209 20.7127 65.8139 20.776C65.8069 20.8393 65.8034 20.8814 65.8034 20.9025C65.7893 21.015 65.7823 21.2084 65.7823 21.4826C65.7823 21.7568 65.7823 22.0451 65.7823 22.3475C65.7823 22.4951 65.7823 22.6428 65.7823 22.7904C65.7823 22.9381 65.7823 23.0752 65.7823 23.2018C65.7823 23.3283 65.7823 23.4408 65.7823 23.5393C65.7893 23.6307 65.7963 23.701 65.8034 23.7502C65.7823 23.8135 65.7541 23.9049 65.719 24.0244C65.6909 24.1439 65.6698 24.2283 65.6557 24.2775L65.508 26.2709C65.4659 26.3271 65.4307 26.3904 65.4026 26.4607C65.3745 26.5311 65.3498 26.6084 65.3287 26.6928C65.3077 26.7701 65.2866 26.8475 65.2655 26.9248C65.2514 26.9951 65.2338 27.0619 65.2127 27.1252C65.2127 27.1393 65.2022 27.1674 65.1811 27.2096C65.167 27.2447 65.153 27.2729 65.1389 27.2939C65.0123 27.5189 64.8858 27.7545 64.7592 28.0006C64.6397 28.2467 64.4955 28.4717 64.3268 28.6756C64.3198 28.6826 64.3022 28.7002 64.2741 28.7283C64.253 28.7564 64.2284 28.7881 64.2002 28.8232C64.1721 28.8514 64.144 28.883 64.1159 28.9182C64.0877 28.9463 64.0666 28.9674 64.0526 28.9814C64.0385 28.9885 64.0174 29.0025 63.9893 29.0236C63.9612 29.0447 63.9295 29.0658 63.8944 29.0869C63.8662 29.108 63.8381 29.1291 63.81 29.1502C63.7819 29.1713 63.7643 29.1818 63.7573 29.1818C63.7432 29.1959 63.7186 29.2205 63.6834 29.2557C63.6483 29.2908 63.6096 29.3295 63.5674 29.3717C63.5252 29.4139 63.4866 29.4525 63.4514 29.4877C63.4162 29.5229 63.3952 29.5439 63.3881 29.551C63.3741 29.558 63.3424 29.565 63.2932 29.5721C63.251 29.5791 63.2053 29.5896 63.1561 29.6037C63.1069 29.6107 63.0577 29.6178 63.0084 29.6248C62.9662 29.6318 62.9416 29.6389 62.9346 29.6459C62.8432 29.66 62.7588 29.7021 62.6815 29.7725C62.6041 29.8357 62.5198 29.885 62.4284 29.9201C62.4143 29.9201 62.3827 29.9271 62.3334 29.9412C62.2842 29.9553 62.228 29.9729 62.1647 29.9939C62.1014 30.008 62.0381 30.0256 61.9748 30.0467C61.9116 30.0607 61.8659 30.0713 61.8377 30.0783C61.7604 30.0924 61.662 30.11 61.5424 30.1311C61.4229 30.1451 61.3209 30.1697 61.2366 30.2049C61.1662 30.24 61.11 30.2717 61.0678 30.2998C61.0327 30.335 60.994 30.3631 60.9518 30.3842C60.9166 30.4053 60.878 30.4193 60.8358 30.4264C60.7936 30.4404 60.7338 30.4475 60.6565 30.4475H60.3823C60.3612 30.4475 60.3225 30.4439 60.2662 30.4369C60.21 30.4299 60.1467 30.4193 60.0764 30.4053C60.0131 30.3982 59.9534 30.3912 59.8971 30.3842C59.8409 30.3771 59.8022 30.3736 59.7811 30.3736H58.9901C58.983 30.3736 58.962 30.3701 58.9268 30.3631C58.8987 30.3561 58.867 30.3455 58.8319 30.3314C58.8037 30.3244 58.7721 30.3174 58.737 30.3104C58.7088 30.3033 58.6912 30.2998 58.6842 30.2998H58.5049H58.0303C58.0162 30.2857 57.9776 30.2611 57.9143 30.226C57.858 30.1838 57.8229 30.1521 57.8088 30.1311C57.5909 30.0256 57.3905 29.9307 57.2077 29.8463C57.0248 29.7619 56.8491 29.674 56.6803 29.5826C56.5116 29.4842 56.3393 29.3752 56.1635 29.2557C55.9948 29.1361 55.812 28.992 55.6151 28.8232C55.608 28.8162 55.587 28.8057 55.5518 28.7916C55.5237 28.7705 55.492 28.7494 55.4569 28.7283C55.4287 28.7002 55.3971 28.6791 55.362 28.665C55.3338 28.6439 55.3162 28.6299 55.3092 28.6229C55.2389 28.5596 55.1827 28.4857 55.1405 28.4014C55.0983 28.317 55.0596 28.2291 55.0245 28.1377C54.9893 28.0393 54.9541 27.9443 54.919 27.8529C54.8909 27.7545 54.8557 27.6631 54.8135 27.5787C54.7995 27.5646 54.7748 27.533 54.7397 27.4838C54.7116 27.4346 54.6799 27.3818 54.6448 27.3256C54.6166 27.2623 54.5885 27.2061 54.5604 27.1568C54.5393 27.1076 54.5287 27.0795 54.5287 27.0725C54.4655 26.974 54.4198 26.865 54.3916 26.7455C54.3635 26.626 54.3424 26.5029 54.3284 26.3764C54.3213 26.2498 54.3143 26.1268 54.3073 26.0072C54.3073 25.8877 54.3002 25.7752 54.2862 25.6697C54.2862 25.6557 54.2791 25.61 54.2651 25.5326C54.251 25.4482 54.237 25.3604 54.2229 25.2689C54.2088 25.1775 54.1948 25.0932 54.1807 25.0158C54.1666 24.9385 54.1596 24.8928 54.1596 24.8787ZM71.1405 29.8252V29.7725C71.1827 29.6881 71.2319 29.5967 71.2882 29.4982C71.3444 29.3998 71.4077 29.3084 71.478 29.224C71.5553 29.1396 71.6397 29.0693 71.7311 29.0131C71.8225 28.9498 71.9245 28.9182 72.037 28.9182H72.8385C72.9018 28.9111 72.9757 28.8936 73.06 28.8654C73.1514 28.8303 73.2393 28.7916 73.3237 28.7494C73.4151 28.7002 73.496 28.6439 73.5663 28.5807C73.6366 28.5174 73.6858 28.4506 73.7139 28.3803C73.721 28.3592 73.728 28.324 73.735 28.2748C73.7491 28.2186 73.7596 28.1623 73.7667 28.1061C73.7737 28.0428 73.7772 27.9865 73.7772 27.9373C73.7842 27.8811 73.7878 27.8424 73.7878 27.8213C73.7737 27.7088 73.7667 27.5189 73.7667 27.2518C73.7667 26.9846 73.7667 26.6928 73.7667 26.3764C73.7667 26.074 73.7667 25.7857 73.7667 25.5115C73.7667 25.2373 73.7737 25.0439 73.7878 24.9314C73.7878 24.9104 73.7913 24.8506 73.7983 24.7521C73.8053 24.6537 73.8124 24.5482 73.8194 24.4357C73.8335 24.3162 73.844 24.2072 73.851 24.1088C73.8581 24.0104 73.8616 23.9471 73.8616 23.9189V23.3811C73.8616 23.1561 73.8475 22.9592 73.8194 22.7904C73.7983 22.6146 73.7139 22.4354 73.5663 22.2525C73.5592 22.2385 73.5206 22.1893 73.4503 22.1049C73.38 22.0205 73.2991 21.9256 73.2077 21.8201C73.1163 21.7076 73.0214 21.5986 72.9229 21.4932C72.8315 21.3807 72.7542 21.2928 72.6909 21.2295C72.6276 21.1521 72.5714 21.0959 72.5221 21.0607C72.48 21.0256 72.4413 20.9623 72.4061 20.8709C72.3991 20.8498 72.3885 20.8146 72.3745 20.7654C72.3604 20.7092 72.3428 20.6529 72.3217 20.5967C72.3007 20.5334 72.2831 20.4771 72.269 20.4279C72.255 20.3787 72.2444 20.3471 72.2374 20.333C72.2303 20.3049 72.2198 20.2697 72.2057 20.2275C72.1917 20.1783 72.1776 20.1291 72.1635 20.0799C72.1425 20.0236 72.1249 19.9639 72.1108 19.9006C72.0967 19.8936 72.0757 19.876 72.0475 19.8479C72.0194 19.8127 71.9878 19.7811 71.9526 19.7529C71.9175 19.7178 71.8823 19.6861 71.8471 19.658C71.819 19.6299 71.8014 19.6123 71.7944 19.6053C71.7803 19.5842 71.7417 19.5279 71.6784 19.4365C71.6151 19.3381 71.5448 19.2361 71.4675 19.1307C71.3971 19.0182 71.3303 18.9162 71.2671 18.8248C71.2038 18.7264 71.1616 18.6666 71.1405 18.6455C71.1335 18.6385 71.1124 18.6209 71.0772 18.5928C71.0491 18.5576 71.0139 18.5189 70.9717 18.4768C70.9296 18.4346 70.8909 18.3959 70.8557 18.3607C70.8206 18.3186 70.796 18.2904 70.7819 18.2764C70.7678 18.2623 70.7397 18.2166 70.6975 18.1393C70.6624 18.0619 70.6448 18.0092 70.6448 17.9811C70.5393 17.8053 70.4163 17.6436 70.2757 17.4959C70.135 17.3412 69.9874 17.1936 69.8327 17.0529C69.7835 17.0037 69.7132 16.9439 69.6217 16.8736C69.5303 16.7963 69.4776 16.7576 69.4635 16.7576C69.351 16.7154 69.2245 16.6908 69.0839 16.6838C68.9503 16.6697 68.8237 16.6486 68.7042 16.6205C68.5917 16.5924 68.4932 16.5467 68.4089 16.4834C68.3315 16.4201 68.2928 16.3076 68.2928 16.1459C68.2928 16.0615 68.2964 15.9807 68.3034 15.9033C68.3175 15.826 68.3561 15.7662 68.4194 15.724C68.4546 15.71 68.5143 15.6889 68.5987 15.6607C68.6901 15.6256 68.7815 15.5939 68.8729 15.5658C68.9714 15.5307 69.0592 15.5025 69.1366 15.4814C69.221 15.4533 69.2807 15.4357 69.3159 15.4287H69.7061C69.903 15.4287 70.0964 15.4428 70.2862 15.4709C70.476 15.492 70.6659 15.5201 70.8557 15.5553C71.0456 15.5834 71.2319 15.6115 71.4147 15.6396C71.6046 15.6607 71.7944 15.6713 71.9842 15.6713C72.0616 15.6713 72.1178 15.6678 72.153 15.6607C72.1882 15.6537 72.2479 15.6256 72.3323 15.5764L74.0831 15.3549C74.1604 15.3479 74.2342 15.3619 74.3046 15.3971C74.3749 15.4322 74.4382 15.4814 74.4944 15.5447C74.5507 15.601 74.5964 15.6678 74.6315 15.7451C74.6667 15.8154 74.6842 15.8857 74.6842 15.9561C74.6842 16.0334 74.6632 16.0932 74.621 16.1354C74.5788 16.1775 74.526 16.2127 74.4628 16.2408C74.4065 16.2689 74.3432 16.2971 74.2729 16.3252C74.2026 16.3463 74.1393 16.3709 74.0831 16.399C74.069 16.399 74.0444 16.4096 74.0092 16.4307C73.9741 16.4447 73.9495 16.4518 73.9354 16.4518C73.9143 16.4588 73.8721 16.4658 73.8089 16.4729C73.7456 16.4799 73.6753 16.4869 73.5979 16.4939C73.5206 16.501 73.4503 16.508 73.387 16.515C73.3237 16.515 73.2815 16.5186 73.2604 16.5256C73.2393 16.5396 73.1901 16.5854 73.1128 16.6627C73.0425 16.733 72.9932 16.7857 72.9651 16.8209V17.2322C72.9651 17.3729 72.9792 17.5064 73.0073 17.633C73.0354 17.7525 73.0741 17.8686 73.1233 17.9811C73.1725 18.0865 73.2288 18.1955 73.2921 18.308C73.3553 18.4135 73.4221 18.526 73.4925 18.6455C73.5065 18.6736 73.5206 18.7053 73.5346 18.7404C73.5557 18.7686 73.5663 18.7896 73.5663 18.8037C73.5803 18.8178 73.5909 18.867 73.5979 18.9514C73.612 19.0287 73.619 19.0779 73.619 19.099C73.6331 19.1131 73.6612 19.1447 73.7034 19.1939C73.7526 19.2432 73.8018 19.2959 73.851 19.3521C73.9073 19.4084 73.9565 19.4611 73.9987 19.5104C74.0409 19.5596 74.069 19.5912 74.0831 19.6053C74.0901 19.6193 74.1077 19.6475 74.1358 19.6896C74.1639 19.7318 74.1921 19.7775 74.2202 19.8268C74.2553 19.876 74.2835 19.9217 74.3046 19.9639C74.3327 20.0061 74.3503 20.0342 74.3573 20.0482C74.3995 20.0623 74.4276 20.0904 74.4417 20.1326C74.4557 20.1396 74.4839 20.1607 74.526 20.1959C74.5753 20.224 74.6245 20.2592 74.6737 20.3014C74.7229 20.3436 74.7651 20.3857 74.8003 20.4279C74.8425 20.4631 74.8706 20.4877 74.8846 20.5018C74.9057 20.5158 74.9374 20.5475 74.9796 20.5967C75.0288 20.6389 75.0815 20.6881 75.1378 20.7443C75.194 20.7936 75.2432 20.8428 75.2854 20.892C75.3346 20.9412 75.3698 20.9764 75.3909 20.9975H75.76C75.8374 20.9131 75.9217 20.8322 76.0132 20.7549C76.1046 20.6775 76.196 20.6037 76.2874 20.5334C76.3858 20.4561 76.4772 20.3787 76.5616 20.3014C76.646 20.224 76.7198 20.1396 76.7831 20.0482C76.7901 20.0412 76.8042 20.0166 76.8253 19.9744C76.8464 19.9252 76.8675 19.876 76.8885 19.8268C76.9167 19.7775 76.9413 19.7318 76.9624 19.6896C76.9835 19.6475 76.9975 19.6193 77.0046 19.6053C77.0678 19.5068 77.1487 19.433 77.2471 19.3838C77.3526 19.3346 77.4475 19.2643 77.5319 19.1729C77.5319 19.1588 77.5425 19.1342 77.5635 19.099C77.5917 19.0568 77.6057 19.0252 77.6057 19.0041V18.7299C77.6268 18.6174 77.6725 18.5365 77.7428 18.4873C77.8132 18.4311 77.887 18.3783 77.9643 18.3291C78.0417 18.2729 78.1085 18.2061 78.1647 18.1287C78.228 18.0443 78.2596 17.9107 78.2596 17.7279C78.2596 17.4959 78.221 17.3307 78.1436 17.2322C78.0663 17.1268 77.9678 17.0529 77.8483 17.0107C77.7288 16.9615 77.5952 16.9193 77.4475 16.8842C77.2999 16.849 77.1522 16.7822 77.0046 16.6838C76.9764 16.6697 76.9483 16.6521 76.9202 16.6311C76.8921 16.6029 76.8604 16.5748 76.8253 16.5467C76.7901 16.5186 76.7514 16.4869 76.7092 16.4518V15.8717L76.7409 15.84C76.7479 15.826 76.755 15.8189 76.762 15.8189C76.769 15.8119 76.776 15.8049 76.7831 15.7979C76.9167 15.6994 77.0573 15.6256 77.205 15.5764C77.3526 15.5271 77.5038 15.492 77.6585 15.4709C77.8132 15.4498 77.9714 15.4393 78.1331 15.4393C78.2948 15.4322 78.453 15.4287 78.6077 15.4287C78.7483 15.4287 78.8714 15.4428 78.9768 15.4709C79.0893 15.492 79.2159 15.5025 79.3565 15.5025C79.4971 15.5025 79.6378 15.492 79.7784 15.4709C79.926 15.4428 80.0702 15.4146 80.2108 15.3865C80.3514 15.3514 80.4921 15.3232 80.6327 15.3021C80.7803 15.274 80.9245 15.26 81.0651 15.26C81.1776 15.26 81.2796 15.2635 81.371 15.2705C81.4624 15.2775 81.5432 15.2951 81.6135 15.3232C81.6909 15.3514 81.7647 15.3936 81.835 15.4498C81.9053 15.5061 81.9827 15.5799 82.0671 15.6713C82.0741 15.6854 82.0811 15.7029 82.0882 15.724C82.1022 15.7592 82.1198 15.7838 82.1409 15.7979V15.8506C82.1409 15.9279 82.1303 16.0299 82.1092 16.1564C82.0882 16.276 82.046 16.3744 81.9827 16.4518C81.9616 16.4729 81.9335 16.5045 81.8983 16.5467C81.8632 16.5889 81.8245 16.6311 81.7823 16.6732C81.7471 16.7084 81.712 16.74 81.6768 16.7682C81.6417 16.7963 81.6206 16.8139 81.6135 16.8209C81.6065 16.8279 81.5819 16.8385 81.5397 16.8525C81.5046 16.8666 81.4624 16.8842 81.4132 16.9053C81.3639 16.9193 81.3147 16.9334 81.2655 16.9475C81.2233 16.9545 81.1952 16.958 81.1811 16.958C81.1319 16.9791 81.0651 17.0143 80.9807 17.0635C80.8964 17.1057 80.8085 17.1549 80.7171 17.2111C80.6327 17.2674 80.5518 17.3271 80.4745 17.3904C80.3971 17.4467 80.3444 17.4994 80.3163 17.5486C80.3092 17.5557 80.2952 17.5768 80.2741 17.6119C80.26 17.64 80.246 17.6717 80.2319 17.7068C80.2178 17.735 80.2038 17.7666 80.1897 17.8018C80.1757 17.8299 80.1651 17.8475 80.1581 17.8545L80.1264 17.8861C80.0983 17.9002 80.0842 17.9072 80.0842 17.9072C80.0702 17.9283 80.0315 17.96 79.9682 18.0021C79.912 18.0373 79.8768 18.0619 79.8628 18.076C79.8487 18.09 79.8206 18.1217 79.7784 18.1709C79.7362 18.2201 79.6905 18.2729 79.6413 18.3291C79.5921 18.3854 79.5464 18.4381 79.5042 18.4873C79.462 18.5365 79.4374 18.5682 79.4303 18.5822C79.4163 18.5963 79.3882 18.6209 79.346 18.6561C79.3108 18.6842 79.2721 18.7193 79.2299 18.7615C79.1878 18.8037 79.1491 18.8424 79.1139 18.8775C79.0858 18.9127 79.0682 18.9373 79.0612 18.9514C79.0471 18.9654 79.019 19.0146 78.9768 19.099C78.9346 19.1834 78.9135 19.2326 78.9135 19.2467C78.9065 19.2467 78.8924 19.2572 78.8714 19.2783C78.8573 19.2994 78.8362 19.324 78.8081 19.3521C78.787 19.3732 78.7624 19.3943 78.7342 19.4154C78.7132 19.4365 78.6991 19.4506 78.6921 19.4576C78.685 19.4576 78.6464 19.4787 78.576 19.5209C78.5128 19.5631 78.4741 19.5912 78.46 19.6053C78.453 19.6123 78.4424 19.6334 78.4284 19.6686C78.4214 19.7037 78.4108 19.7459 78.3967 19.7951C78.3827 19.8373 78.3686 19.876 78.3546 19.9111C78.3475 19.9463 78.3405 19.9674 78.3335 19.9744C78.2772 20.0729 78.1928 20.1502 78.0803 20.2064C77.9749 20.2627 77.8835 20.3295 77.8061 20.4068C77.8061 20.4209 77.785 20.4596 77.7428 20.5229C77.7077 20.5791 77.6866 20.6143 77.6796 20.6283C77.6655 20.6494 77.6268 20.6881 77.5635 20.7443C77.5073 20.8006 77.444 20.8639 77.3737 20.9342C77.3104 20.9975 77.2471 21.0572 77.1839 21.1135C77.1276 21.1697 77.0889 21.2084 77.0678 21.2295C77.0257 21.2646 76.994 21.3104 76.9729 21.3666C76.9518 21.4229 76.9307 21.4826 76.9096 21.5459C76.8956 21.6021 76.878 21.6619 76.8569 21.7252C76.8358 21.7814 76.8112 21.8342 76.7831 21.8834C76.6846 22.0311 76.5686 22.1611 76.435 22.2736C76.3014 22.3861 76.203 22.5268 76.1397 22.6955C76.1327 22.7236 76.1257 22.7729 76.1186 22.8432C76.1186 22.9064 76.1186 22.9768 76.1186 23.0541C76.1186 23.1314 76.1186 23.2053 76.1186 23.2756C76.1186 23.3459 76.1186 23.3951 76.1186 23.4232C76.1186 23.4654 76.1186 23.5287 76.1186 23.6131C76.1186 23.6904 76.1186 23.7678 76.1186 23.8451C76.1186 23.9225 76.1186 23.9928 76.1186 24.0561C76.1257 24.1123 76.1327 24.1439 76.1397 24.151C76.1397 24.158 76.1432 24.1791 76.1503 24.2143C76.1573 24.2494 76.1643 24.2881 76.1714 24.3303C76.1854 24.3725 76.196 24.4146 76.203 24.4568C76.21 24.492 76.2135 24.5131 76.2135 24.5201V24.6994C76.2135 24.84 76.196 24.9842 76.1608 25.1318C76.1257 25.2725 76.0905 25.4061 76.0553 25.5326C76.0553 25.5467 76.0483 25.5748 76.0342 25.617C76.0202 25.6592 76.0026 25.7049 75.9815 25.7541C75.9604 25.8033 75.9428 25.849 75.9288 25.8912C75.9147 25.9334 75.9077 25.9615 75.9077 25.9756V26.0072C75.9077 26.0846 75.9182 26.1584 75.9393 26.2287C75.9675 26.299 75.9956 26.3693 76.0237 26.4396C76.0518 26.51 76.0764 26.5838 76.0975 26.6611C76.1257 26.7314 76.1397 26.8053 76.1397 26.8826C76.1397 26.96 76.1257 27.0268 76.0975 27.083C76.0694 27.1393 76.0553 27.2096 76.0553 27.2939C76.0553 27.4557 76.094 27.6314 76.1714 27.8213C76.2487 28.0041 76.305 28.1658 76.3401 28.3064L77.0046 28.9814C77.0186 28.9814 77.0503 28.992 77.0995 29.0131C77.1557 29.0342 77.2014 29.0447 77.2366 29.0447C77.2436 29.0518 77.2717 29.0623 77.321 29.0764C77.3702 29.0834 77.4229 29.0904 77.4792 29.0975C77.5354 29.1045 77.5882 29.1115 77.6374 29.1186C77.6866 29.1186 77.7182 29.1186 77.7323 29.1186C77.7604 29.1326 77.8096 29.1502 77.88 29.1713C77.9503 29.1924 78.0206 29.2135 78.0909 29.2346C78.1612 29.2557 78.2245 29.2768 78.2807 29.2979C78.344 29.3189 78.3862 29.3365 78.4073 29.3506C78.4706 29.3787 78.5092 29.4068 78.5233 29.435C78.5444 29.4631 78.5549 29.5018 78.5549 29.551C78.5549 29.565 78.5549 29.5861 78.5549 29.6143C78.5549 29.6354 78.5479 29.6459 78.5339 29.6459C78.4706 29.9201 78.351 30.0994 78.1753 30.1838C78.0065 30.2611 77.785 30.2998 77.5108 30.2998C77.3842 30.2998 77.2577 30.2857 77.1311 30.2576C77.0046 30.2225 76.8815 30.2049 76.762 30.2049C76.7409 30.2049 76.7163 30.2084 76.6882 30.2154C76.66 30.2154 76.6319 30.2154 76.6038 30.2154C76.5757 30.2225 76.544 30.226 76.5089 30.226C76.4948 30.226 76.4667 30.24 76.4245 30.2682C76.3823 30.2893 76.3542 30.2998 76.3401 30.2998C76.319 30.2998 76.2768 30.3033 76.2135 30.3104C76.1573 30.3174 76.0905 30.3244 76.0132 30.3314C75.9358 30.3455 75.8585 30.3561 75.7811 30.3631C75.7108 30.3701 75.6546 30.3736 75.6124 30.3736H75.4436C75.303 30.3736 75.1624 30.3596 75.0217 30.3314C74.8811 30.3104 74.737 30.2998 74.5893 30.2998C74.1745 30.2998 73.7632 30.3104 73.3553 30.3314C72.9475 30.3596 72.5432 30.3736 72.1425 30.3736H71.6678C71.6186 30.3596 71.5624 30.335 71.4991 30.2998C71.4358 30.2576 71.376 30.2119 71.3198 30.1627C71.2706 30.1064 71.2284 30.0502 71.1932 29.9939C71.1581 29.9307 71.1405 29.8744 71.1405 29.8252ZM87.2781 30.2787C87.2007 30.2576 87.1304 30.2436 87.0671 30.2365C87.0109 30.2295 86.9581 30.2189 86.9089 30.2049C86.8597 30.1838 86.821 30.1557 86.7929 30.1205C86.7718 30.0783 86.7613 30.015 86.7613 29.9307C86.7613 29.8533 86.7683 29.7936 86.7824 29.7514C86.7964 29.7021 86.8316 29.6283 86.8878 29.5299C87.0003 29.3822 87.1409 29.2838 87.3097 29.2346C87.4784 29.1854 87.6472 29.1502 87.8159 29.1291C87.9917 29.108 88.157 29.0799 88.3117 29.0447C88.4734 29.0096 88.5964 28.9287 88.6808 28.8021C88.6878 28.7811 88.7019 28.7494 88.723 28.7072C88.7441 28.665 88.7652 28.6264 88.7863 28.5912C88.8144 28.5561 88.8355 28.5244 88.8495 28.4963C88.8706 28.4611 88.8812 28.4436 88.8812 28.4436V26.3025C88.8952 26.2885 88.9093 26.2568 88.9234 26.2076C88.9445 26.1514 88.955 26.1162 88.955 26.1021V25.8807V25.3533C88.955 25.3393 88.9585 25.3111 88.9656 25.2689C88.9726 25.2268 88.9796 25.1846 88.9867 25.1424C89.0007 25.0932 89.0113 25.0475 89.0183 25.0053C89.0324 24.9631 89.0394 24.935 89.0394 24.9209V24.5518C89.0394 24.4744 89.0324 24.4111 89.0183 24.3619C89.0113 24.3057 89.0007 24.2529 88.9867 24.2037C88.9796 24.1545 88.9726 24.1053 88.9656 24.0561C88.9585 24.0068 88.955 23.9471 88.955 23.8768V23.6975C88.962 23.6834 88.9691 23.6588 88.9761 23.6236C88.9831 23.5814 88.9902 23.5393 88.9972 23.4971C89.0113 23.4549 89.0218 23.4197 89.0288 23.3916C89.0359 23.3564 89.0394 23.3354 89.0394 23.3283C89.0394 23.2932 89.0394 23.2123 89.0394 23.0857C89.0464 22.9592 89.0534 22.8256 89.0605 22.685C89.0675 22.5443 89.0745 22.4143 89.0816 22.2947C89.0956 22.1752 89.1062 22.1014 89.1132 22.0732C89.1132 22.0592 89.1238 22.0205 89.1449 21.9572C89.1659 21.8939 89.1765 21.8518 89.1765 21.8307V21.1029C89.1835 21.0467 89.1941 20.9377 89.2081 20.776C89.2222 20.6072 89.2363 20.4314 89.2503 20.2486C89.2644 20.0588 89.2784 19.8795 89.2925 19.7107C89.3066 19.542 89.3136 19.4225 89.3136 19.3521C89.3277 19.3381 89.3452 19.2924 89.3663 19.215C89.3945 19.1307 89.4085 19.0779 89.4085 19.0568C89.4085 18.9162 89.3839 18.7721 89.3347 18.6244C89.2925 18.4697 89.2292 18.3256 89.1449 18.192C89.0605 18.0584 88.9585 17.9389 88.839 17.8334C88.7195 17.7279 88.5859 17.6506 88.4382 17.6014C88.4242 17.5943 88.389 17.5873 88.3327 17.5803C88.2765 17.5662 88.2167 17.5521 88.1534 17.5381C88.0902 17.524 88.0304 17.51 87.9742 17.4959C87.9179 17.4818 87.8792 17.4678 87.8581 17.4537C87.8511 17.4467 87.8335 17.4326 87.8054 17.4115C87.7773 17.3904 87.7456 17.3693 87.7105 17.3482C87.6824 17.3201 87.6507 17.2955 87.6156 17.2744C87.5874 17.2533 87.5699 17.2393 87.5628 17.2322C87.5558 17.2322 87.5347 17.2287 87.4995 17.2217C87.4644 17.2076 87.4257 17.1971 87.3835 17.19C87.3413 17.183 87.3027 17.176 87.2675 17.1689C87.2324 17.1619 87.2113 17.1584 87.2042 17.1584C87.1409 17.1373 87.0636 17.0846 86.9722 17.0002C86.8808 16.9158 86.7894 16.8244 86.698 16.726C86.6136 16.6205 86.5398 16.5221 86.4765 16.4307C86.4132 16.3322 86.3816 16.2584 86.3816 16.2092C86.3816 16.174 86.3851 16.1459 86.3921 16.1248C86.3921 16.1037 86.3956 16.0861 86.4027 16.0721C86.4097 16.051 86.4273 16.0193 86.4554 15.9771C86.4906 15.9279 86.5257 15.8787 86.5609 15.8295C86.6031 15.7803 86.6417 15.7346 86.6769 15.6924C86.712 15.6502 86.7402 15.6221 86.7613 15.608C86.7753 15.608 86.8281 15.5975 86.9195 15.5764C87.0109 15.5482 87.0812 15.5342 87.1304 15.5342H88.7546C88.846 15.5061 88.9199 15.492 88.9761 15.492C89.0324 15.485 89.0992 15.4814 89.1765 15.4814C89.3523 15.4814 89.5034 15.5201 89.63 15.5975C89.7636 15.6678 89.8831 15.7592 89.9886 15.8717C90.0941 15.9771 90.1925 16.0967 90.2839 16.2303C90.3824 16.3568 90.4808 16.4729 90.5792 16.5783C90.5863 16.5924 90.6144 16.624 90.6636 16.6732C90.7128 16.7154 90.7656 16.7682 90.8218 16.8314C90.8781 16.8877 90.9308 16.9404 90.98 16.9896C91.0292 17.0389 91.0609 17.0705 91.0749 17.0846C91.1734 17.1971 91.2472 17.3201 91.2964 17.4537C91.3527 17.5873 91.43 17.7104 91.5284 17.8229C91.655 17.9775 91.7956 18.1146 91.9503 18.2342C92.112 18.3467 92.2632 18.4768 92.4038 18.6244C92.5304 18.765 92.671 18.9443 92.8257 19.1623C92.9804 19.3803 93.1421 19.6018 93.3109 19.8268C93.4796 20.0447 93.6484 20.2451 93.8171 20.4279C93.9859 20.6107 94.1511 20.7373 94.3128 20.8076C94.5167 21.1803 94.7523 21.5248 95.0195 21.8412C95.2937 22.1576 95.589 22.4529 95.9054 22.7271C95.9546 22.8186 96.0109 22.924 96.0742 23.0436C96.1374 23.1561 96.2042 23.251 96.2745 23.3283C96.3449 23.3916 96.4222 23.4443 96.5066 23.4865C96.598 23.5287 96.6859 23.5744 96.7702 23.6236C96.8546 23.6729 96.9249 23.7326 96.9812 23.8029C97.0445 23.8662 97.0796 23.9506 97.0867 24.0561C97.1218 24.0842 97.1816 24.1404 97.2659 24.2248C97.3503 24.3021 97.4382 24.39 97.5296 24.4885C97.621 24.5799 97.7054 24.6678 97.7827 24.7521C97.8671 24.8365 97.9269 24.8928 97.962 24.9209C98.0253 24.9912 98.0745 25.058 98.1097 25.1213C98.1449 25.1846 98.1835 25.2408 98.2257 25.29C98.2679 25.3393 98.3171 25.3779 98.3734 25.4061C98.4367 25.4342 98.521 25.4482 98.6265 25.4482C98.6898 25.4482 98.7495 25.4412 98.8058 25.4271C98.862 25.4131 98.8972 25.3639 98.9113 25.2795C99.0097 25.0053 99.0835 24.7275 99.1327 24.4463C99.182 24.158 99.2066 23.8662 99.2066 23.5709V23.2334C99.2066 23.2193 99.196 23.1736 99.1749 23.0963C99.1609 23.0119 99.1538 22.9557 99.1538 22.9275C99.1398 22.9135 99.1327 22.8607 99.1327 22.7693C99.1327 22.6709 99.1363 22.5725 99.1433 22.474C99.1503 22.3686 99.1538 22.3088 99.1538 22.2947C99.1398 22.2244 99.1292 22.1119 99.1222 21.9572C99.1152 21.8025 99.1081 21.6408 99.1011 21.4721C99.0941 21.2963 99.087 21.1346 99.08 20.9869C99.073 20.8393 99.0659 20.7373 99.0589 20.6811C99.0589 20.6389 99.0554 20.5791 99.0484 20.5018C99.0413 20.4244 99.0343 20.3436 99.0273 20.2592C99.0202 20.1748 99.0132 20.0975 99.0062 20.0271C98.9992 19.9498 98.9921 19.9006 98.9851 19.8795C98.9851 19.8514 98.9745 19.8092 98.9534 19.7529C98.9394 19.6967 98.9253 19.6615 98.9113 19.6475V17.8229C98.9113 17.8088 98.9042 17.7842 98.8902 17.749C98.8761 17.7139 98.8585 17.6893 98.8374 17.6752C98.732 17.4713 98.6019 17.2709 98.4472 17.074C98.2995 16.8771 98.1167 16.7541 97.8988 16.7049C97.8847 16.7049 97.8531 16.7014 97.8038 16.6943C97.7617 16.6803 97.7159 16.6697 97.6667 16.6627C97.6245 16.6486 97.5824 16.6381 97.5402 16.6311C97.498 16.617 97.4699 16.6064 97.4558 16.5994C97.4488 16.5994 97.4277 16.5924 97.3925 16.5783C97.3644 16.5572 97.3327 16.5361 97.2976 16.515C97.2695 16.4939 97.2413 16.4764 97.2132 16.4623C97.1851 16.4412 97.1675 16.4307 97.1605 16.4307C97.0199 16.3322 96.9038 16.2373 96.8124 16.1459C96.7281 16.0545 96.6929 15.9139 96.707 15.724C96.714 15.6467 96.7386 15.5799 96.7808 15.5236C96.823 15.4674 96.8687 15.4217 96.9179 15.3865C96.9742 15.3443 97.0269 15.3162 97.0761 15.3021C97.1253 15.2811 97.1605 15.267 97.1816 15.26C97.1956 15.26 97.2238 15.26 97.2659 15.26C97.3152 15.2529 97.3644 15.2494 97.4136 15.2494H97.6034L99.9238 15.3971C100.24 15.3971 100.571 15.3725 100.915 15.3232C101.267 15.274 101.604 15.2494 101.928 15.2494C101.928 15.2564 101.959 15.2635 102.023 15.2705C102.093 15.2775 102.135 15.2881 102.149 15.3021C102.234 15.3303 102.307 15.3479 102.371 15.3549C102.434 15.3549 102.487 15.3654 102.529 15.3865C102.571 15.4006 102.603 15.4357 102.624 15.492C102.645 15.5482 102.655 15.6432 102.655 15.7768C102.655 15.8893 102.624 15.9842 102.56 16.0615C102.504 16.1389 102.43 16.2057 102.339 16.2619C102.248 16.3111 102.149 16.3533 102.044 16.3885C101.938 16.4236 101.843 16.4553 101.759 16.4834C101.752 16.4834 101.703 16.501 101.611 16.5361C101.52 16.5643 101.46 16.5854 101.432 16.5994C101.376 16.6275 101.302 16.6662 101.21 16.7154C101.126 16.7646 101.042 16.8209 100.957 16.8842C100.901 16.9404 100.845 17.0002 100.789 17.0635C100.739 17.1197 100.697 17.1654 100.662 17.2006C100.599 17.2639 100.55 17.3588 100.514 17.4854C100.486 17.6119 100.465 17.7244 100.451 17.8229C100.451 17.8791 100.448 17.974 100.441 18.1076C100.434 18.2342 100.426 18.3713 100.419 18.5189C100.412 18.6666 100.405 18.8072 100.398 18.9408C100.391 19.0744 100.384 19.1693 100.377 19.2256V19.9006V20.1537C100.377 20.1678 100.363 20.2064 100.335 20.2697C100.314 20.326 100.303 20.3611 100.303 20.3752V20.7232C100.303 20.885 100.318 21.0326 100.346 21.1662C100.381 21.2998 100.398 21.4545 100.398 21.6303V21.8307C100.398 21.8939 100.391 21.9607 100.377 22.0311C100.363 22.0943 100.339 22.1506 100.303 22.1998V23.4549C100.303 23.4689 100.3 23.4936 100.293 23.5287C100.286 23.5639 100.279 23.6025 100.272 23.6447C100.272 23.6869 100.268 23.7256 100.261 23.7607C100.254 23.7959 100.251 23.817 100.251 23.824V24.8471C100.251 24.8611 100.237 24.9104 100.209 24.9947C100.187 25.0721 100.177 25.1248 100.177 25.1529C100.17 25.1811 100.163 25.2268 100.156 25.29C100.149 25.3533 100.138 25.4201 100.124 25.4904C100.117 25.5607 100.11 25.6275 100.103 25.6908C100.096 25.7471 100.089 25.7857 100.082 25.8068V26.2814C100.082 26.5838 100.11 26.8826 100.166 27.1779C100.223 27.4732 100.251 27.7721 100.251 28.0744V28.1271C100.251 28.1553 100.237 28.2115 100.209 28.2959C100.187 28.3732 100.177 28.4225 100.177 28.4436C100.163 28.4787 100.156 28.542 100.156 28.6334C100.156 28.7178 100.156 28.8127 100.156 28.9182C100.156 29.0166 100.156 29.1115 100.156 29.2029C100.156 29.2943 100.163 29.3576 100.177 29.3928C100.078 29.4912 99.98 29.5932 99.8816 29.6986C99.7902 29.7971 99.6742 29.8463 99.5335 29.8463C99.5124 29.8463 99.4949 29.8428 99.4808 29.8357C99.4667 29.8357 99.4562 29.8322 99.4492 29.8252C99.2523 29.7619 99.0765 29.6705 98.9218 29.551C98.7671 29.4314 98.623 29.2979 98.4894 29.1502C98.3628 29.0025 98.2398 28.8479 98.1202 28.6861C98.0007 28.5244 97.8777 28.3697 97.7511 28.2221C97.73 28.1939 97.6738 28.1342 97.5824 28.0428C97.498 27.9443 97.4066 27.8424 97.3081 27.7369C97.2097 27.6314 97.1183 27.533 97.0339 27.4416C96.9495 27.3502 96.8968 27.2939 96.8757 27.2729C96.6156 26.9846 96.3765 26.6822 96.1585 26.3658C95.9406 26.0494 95.7085 25.7436 95.4624 25.4482C95.4624 25.4201 95.4449 25.3885 95.4097 25.3533C95.3886 25.3393 95.3464 25.3076 95.2831 25.2584C95.2269 25.2092 95.1636 25.1564 95.0933 25.1002C95.03 25.0439 94.9702 24.9912 94.914 24.942C94.8577 24.8928 94.8226 24.8611 94.8085 24.8471C94.8015 24.84 94.7839 24.8119 94.7558 24.7627C94.7277 24.7064 94.696 24.6502 94.6609 24.5939C94.6327 24.5377 94.6011 24.485 94.5659 24.4357C94.5378 24.3795 94.5202 24.3443 94.5132 24.3303C94.4992 24.3232 94.4886 24.3127 94.4816 24.2986C94.4605 24.2775 94.4499 24.2635 94.4499 24.2564C94.4429 24.2564 94.4218 24.2424 94.3867 24.2143C94.3585 24.1861 94.3234 24.158 94.2812 24.1299C94.239 24.0947 94.1968 24.0631 94.1546 24.035C94.1195 23.9998 94.0949 23.9787 94.0808 23.9717C94.0245 23.9225 93.9788 23.8697 93.9437 23.8135C93.9085 23.7502 93.8769 23.6869 93.8488 23.6236C93.8206 23.5533 93.789 23.4865 93.7538 23.4232C93.7257 23.3529 93.687 23.2896 93.6378 23.2334C93.6308 23.2193 93.5992 23.1842 93.5429 23.1279C93.4867 23.0717 93.4269 23.0119 93.3636 22.9486C93.3003 22.8783 93.237 22.815 93.1738 22.7588C93.1175 22.7025 93.0788 22.6674 93.0577 22.6533C93.0437 22.6393 93.0156 22.6041 92.9734 22.5479C92.9312 22.4846 92.9101 22.4459 92.9101 22.4318C92.8749 22.3826 92.8292 22.3404 92.773 22.3053C92.7238 22.2701 92.671 22.2385 92.6148 22.2104C92.5656 22.1752 92.5163 22.1436 92.4671 22.1154C92.4179 22.0803 92.3722 22.0416 92.33 21.9994C92.323 21.9924 92.3089 21.9713 92.2878 21.9361C92.2738 21.8939 92.2527 21.8518 92.2245 21.8096C92.1964 21.7674 92.1683 21.7287 92.1402 21.6936C92.1191 21.6584 92.1015 21.6373 92.0874 21.6303C92.0874 21.6232 92.0699 21.5986 92.0347 21.5564C91.9995 21.5143 91.9749 21.4861 91.9609 21.4721C91.9468 21.465 91.9187 21.451 91.8765 21.4299C91.8413 21.4018 91.8027 21.3736 91.7605 21.3455C91.7253 21.3104 91.6902 21.2787 91.655 21.2506C91.6199 21.2154 91.6023 21.1908 91.6023 21.1768C91.5812 21.1697 91.5425 21.1381 91.4863 21.0818C91.43 21.0256 91.3667 20.9658 91.2964 20.9025C91.2331 20.8322 91.1734 20.7689 91.1171 20.7127C91.0609 20.6564 91.0222 20.6213 91.0011 20.6072C90.9449 20.5369 90.8886 20.4807 90.8324 20.4385C90.7831 20.3963 90.7163 20.3752 90.632 20.3752C90.5546 20.3752 90.4843 20.4139 90.421 20.4912C90.3648 20.5615 90.3156 20.6459 90.2734 20.7443C90.2312 20.8428 90.196 20.9412 90.1679 21.0396C90.1468 21.1381 90.1363 21.2154 90.1363 21.2717C90.1363 21.2717 90.1363 21.2963 90.1363 21.3455C90.1363 21.3947 90.1327 21.451 90.1257 21.5143C90.1257 21.5705 90.1257 21.6303 90.1257 21.6936C90.1257 21.7568 90.1257 21.8025 90.1257 21.8307C90.1257 21.8658 90.1257 21.915 90.1257 21.9783C90.1257 22.0346 90.1257 22.0908 90.1257 22.1471C90.1327 22.2033 90.1363 22.2525 90.1363 22.2947C90.1363 22.3369 90.1363 22.358 90.1363 22.358C90.1363 22.3791 90.1433 22.4248 90.1574 22.4951C90.1714 22.5584 90.1855 22.6287 90.1995 22.7061C90.2136 22.7764 90.2277 22.8432 90.2417 22.9064C90.2558 22.9697 90.2628 23.0084 90.2628 23.0225C90.2769 23.0506 90.2839 23.1104 90.2839 23.2018C90.2839 23.2861 90.2839 23.3881 90.2839 23.5076C90.2839 23.6342 90.2804 23.7678 90.2734 23.9084C90.2734 24.042 90.2734 24.1686 90.2734 24.2881C90.2734 24.4076 90.2699 24.5131 90.2628 24.6045C90.2628 24.6959 90.2628 24.7592 90.2628 24.7943C90.2628 24.7943 90.2663 24.8119 90.2734 24.8471C90.2804 24.8822 90.2874 24.9209 90.2945 24.9631C90.3085 24.9982 90.3191 25.0369 90.3261 25.0791C90.3331 25.1143 90.3367 25.1389 90.3367 25.1529C90.3367 25.167 90.3402 25.2303 90.3472 25.3428C90.3542 25.4553 90.3577 25.5502 90.3577 25.6275C90.3577 25.8033 90.3402 25.9686 90.305 26.1232C90.2769 26.2779 90.2628 26.4432 90.2628 26.6189C90.2628 26.7244 90.2734 26.8369 90.2945 26.9564C90.3226 27.0689 90.3367 27.185 90.3367 27.3045C90.3367 27.3889 90.3226 27.4697 90.2945 27.5471C90.2734 27.6244 90.2628 27.7088 90.2628 27.8002C90.2628 28.1166 90.3226 28.3486 90.4421 28.4963C90.5617 28.6369 90.7163 28.7389 90.9062 28.8021C91.096 28.8654 91.3034 28.9111 91.5284 28.9393C91.7534 28.9604 91.9714 29.0131 92.1824 29.0975C92.3089 29.1537 92.4109 29.224 92.4882 29.3084C92.5656 29.3928 92.657 29.4982 92.7624 29.6248C92.8117 29.674 92.8398 29.7232 92.8468 29.7725C92.8538 29.8146 92.8574 29.8674 92.8574 29.9307V30.1205C92.8363 30.1416 92.8046 30.1557 92.7624 30.1627C92.7202 30.1627 92.6745 30.1662 92.6253 30.1732C92.5761 30.1732 92.5304 30.1768 92.4882 30.1838C92.446 30.1838 92.4179 30.1908 92.4038 30.2049C92.3195 30.24 92.2456 30.2682 92.1824 30.2893C92.1261 30.3104 92.0699 30.3244 92.0136 30.3314C91.9644 30.3455 91.9152 30.3525 91.8659 30.3525C91.8167 30.3525 91.757 30.3525 91.6867 30.3525H91.4546C91.2156 30.3525 90.9765 30.335 90.7374 30.2998C90.5054 30.2646 90.2699 30.2471 90.0308 30.2471C89.7636 30.2471 89.4999 30.2646 89.2398 30.2998C88.9867 30.335 88.7335 30.3525 88.4804 30.3525H88.3011C88.2659 30.3455 88.1956 30.3385 88.0902 30.3314C87.9917 30.3244 87.8863 30.3174 87.7738 30.3104C87.6683 30.3104 87.5663 30.3068 87.4679 30.2998C87.3695 30.2928 87.3062 30.2857 87.2781 30.2787ZM106.347 25.6275C106.446 25.726 106.541 25.8525 106.632 26.0072C106.73 26.1619 106.815 26.3025 106.885 26.4291C106.885 26.4432 106.889 26.4924 106.896 26.5768C106.91 26.6611 106.924 26.7104 106.938 26.7244C106.98 26.8158 107.033 26.9178 107.096 27.0303C107.159 27.1428 107.226 27.2553 107.296 27.3678C107.374 27.4732 107.451 27.5787 107.528 27.6842C107.606 27.7896 107.676 27.8775 107.739 27.9479C107.746 27.9549 107.761 27.9725 107.782 28.0006C107.803 28.0217 107.824 28.0463 107.845 28.0744C107.873 28.1025 107.898 28.1271 107.919 28.1482C107.947 28.1693 107.964 28.1799 107.971 28.1799C107.986 28.1939 108.01 28.2432 108.045 28.3275C108.087 28.4119 108.109 28.4611 108.109 28.4752L108.341 28.7072C108.348 28.7143 108.376 28.7283 108.425 28.7494C108.474 28.7705 108.527 28.7916 108.583 28.8127C108.639 28.8338 108.692 28.8549 108.741 28.876C108.791 28.8971 108.822 28.9111 108.836 28.9182C108.85 28.9252 108.864 28.9322 108.878 28.9393C108.9 28.9393 108.917 28.9428 108.931 28.9498C108.952 28.9568 108.973 28.9674 108.994 28.9814C109.227 29.1502 109.476 29.2908 109.743 29.4033C110.011 29.5158 110.292 29.5721 110.587 29.5721C110.7 29.5721 110.798 29.5439 110.882 29.4877C110.967 29.4244 111.069 29.3787 111.188 29.3506C111.195 29.3506 111.216 29.3471 111.252 29.34C111.294 29.333 111.336 29.326 111.378 29.3189C111.42 29.3119 111.459 29.3049 111.494 29.2979C111.529 29.2908 111.547 29.2838 111.547 29.2768C111.603 29.2557 111.656 29.224 111.705 29.1818C111.761 29.1396 111.814 29.0939 111.863 29.0447C111.919 28.9955 111.969 28.9463 112.011 28.8971C112.06 28.8479 112.102 28.8057 112.137 28.7705C112.152 28.7635 112.187 28.7424 112.243 28.7072C112.299 28.6721 112.359 28.6334 112.422 28.5912C112.493 28.549 112.556 28.5104 112.612 28.4752C112.675 28.44 112.718 28.4154 112.739 28.4014C112.795 28.3592 112.862 28.2924 112.939 28.201C113.016 28.1025 113.094 28.0006 113.171 27.8951C113.255 27.7826 113.329 27.6736 113.393 27.5682C113.456 27.4627 113.505 27.3748 113.54 27.3045C113.54 27.2975 113.547 27.2623 113.561 27.199C113.582 27.1357 113.593 27.1006 113.593 27.0936C113.642 27.0092 113.691 26.9354 113.741 26.8721C113.797 26.8088 113.853 26.749 113.909 26.6928C113.966 26.6365 114.018 26.5768 114.068 26.5135C114.117 26.4432 114.159 26.3658 114.194 26.2814C114.278 26.0775 114.321 25.8842 114.321 25.7014C114.328 25.5186 114.352 25.3182 114.394 25.1002C114.409 25.0861 114.426 25.0545 114.447 25.0053C114.475 24.949 114.489 24.9139 114.489 24.8998V24.4252V24.2459C114.503 24.0842 114.539 23.933 114.595 23.7924C114.658 23.6518 114.69 23.5041 114.69 23.3494V23.2756C114.683 23.1842 114.672 23.0611 114.658 22.9064C114.644 22.7518 114.63 22.6006 114.616 22.4529C114.602 22.3053 114.588 22.1787 114.574 22.0732C114.567 21.9607 114.563 21.8975 114.563 21.8834C114.556 21.8693 114.542 21.8342 114.521 21.7779C114.5 21.7146 114.475 21.6514 114.447 21.5881C114.419 21.5178 114.391 21.4545 114.363 21.3982C114.342 21.342 114.328 21.3033 114.321 21.2822C114.257 21.0783 114.201 20.8639 114.152 20.6389C114.103 20.4139 114.039 20.1994 113.962 19.9955C113.843 19.5877 113.66 19.2221 113.414 18.8986C113.175 18.5682 112.918 18.2518 112.644 17.9494C112.637 17.9213 112.616 17.8896 112.58 17.8545C112.545 17.8193 112.517 17.7947 112.496 17.7807C112.355 17.6893 112.218 17.6049 112.085 17.5275C111.958 17.4502 111.835 17.3658 111.716 17.2744C111.68 17.2533 111.635 17.2287 111.578 17.2006C111.522 17.1654 111.491 17.1408 111.484 17.1268C111.35 17.0635 111.213 17.0318 111.072 17.0318C110.939 17.0248 110.805 17.0072 110.671 16.9791C110.664 16.9791 110.64 16.9686 110.598 16.9475C110.562 16.9193 110.541 16.9053 110.534 16.9053C110.52 16.9053 110.503 16.9018 110.482 16.8947C110.468 16.8947 110.45 16.8947 110.429 16.8947C110.415 16.8877 110.401 16.8842 110.387 16.8842C110.366 16.8842 110.337 16.8877 110.302 16.8947C110.267 16.9018 110.239 16.9053 110.218 16.9053C110.204 16.9193 110.186 16.9334 110.165 16.9475C110.13 16.9686 110.105 16.9791 110.091 16.9791H109.722C109.694 16.9791 109.634 17.0002 109.543 17.0424C109.459 17.0775 109.399 17.1057 109.364 17.1268C109.343 17.1338 109.3 17.1584 109.237 17.2006C109.181 17.2428 109.118 17.2885 109.047 17.3377C108.977 17.3869 108.91 17.4361 108.847 17.4854C108.784 17.5275 108.738 17.5592 108.71 17.5803C108.689 17.5803 108.657 17.6014 108.615 17.6436C108.594 17.6646 108.576 17.6857 108.562 17.7068C108.541 17.7209 108.495 17.742 108.425 17.7701C108.355 17.7982 108.277 17.8299 108.193 17.865C108.109 17.8932 108.031 17.9213 107.961 17.9494C107.891 17.9775 107.848 17.9951 107.834 18.0021C107.82 18.0092 107.792 18.0443 107.75 18.1076C107.708 18.1639 107.659 18.2307 107.602 18.308C107.546 18.3783 107.49 18.4557 107.434 18.54C107.377 18.6174 107.332 18.6807 107.296 18.7299C107.191 18.9057 107.089 19.0885 106.991 19.2783C106.899 19.4611 106.808 19.6439 106.716 19.8268C106.681 19.8971 106.657 19.9709 106.643 20.0482C106.628 20.1186 106.618 20.1959 106.611 20.2803C106.611 20.3576 106.604 20.435 106.59 20.5123C106.576 20.5826 106.551 20.6529 106.516 20.7232C106.502 20.7303 106.474 20.7619 106.432 20.8182C106.389 20.8744 106.361 20.9096 106.347 20.9236C106.347 20.9307 106.344 20.9518 106.337 20.9869C106.33 21.015 106.323 21.0467 106.316 21.0818C106.309 21.11 106.302 21.1416 106.294 21.1768C106.287 21.2049 106.284 21.2225 106.284 21.2295C106.235 21.3912 106.171 21.5529 106.094 21.7146C106.024 21.8764 105.989 22.0381 105.989 22.1998V22.3264C105.989 22.3334 105.992 22.3545 105.999 22.3896C106.006 22.4248 106.013 22.4635 106.02 22.5057C106.034 22.5479 106.045 22.59 106.052 22.6322C106.066 22.6674 106.073 22.6885 106.073 22.6955C106.073 22.7096 106.066 22.7447 106.052 22.801C106.045 22.8572 106.034 22.917 106.02 22.9803C106.013 23.0436 106.006 23.1033 105.999 23.1596C105.992 23.2158 105.989 23.2545 105.989 23.2756V23.5287V23.708C106.003 23.7291 106.027 23.7818 106.062 23.8662C106.105 23.9436 106.133 23.9893 106.147 24.0033C106.147 24.0244 106.147 24.0701 106.147 24.1404C106.154 24.2107 106.161 24.2881 106.168 24.3725C106.175 24.4498 106.182 24.5236 106.189 24.5939C106.196 24.6643 106.203 24.71 106.21 24.7311C106.217 24.7662 106.228 24.826 106.242 24.9104C106.256 24.9947 106.27 25.0861 106.284 25.1846C106.298 25.276 106.312 25.3639 106.326 25.4482C106.34 25.5326 106.347 25.5924 106.347 25.6275ZM109.121 30.4686C109.114 30.4334 109.072 30.3982 108.994 30.3631C108.924 30.335 108.871 30.3139 108.836 30.2998C108.822 30.2928 108.78 30.2822 108.71 30.2682C108.646 30.2471 108.573 30.226 108.488 30.2049C108.404 30.1768 108.316 30.1557 108.225 30.1416C108.14 30.1205 108.077 30.1064 108.035 30.0994C108.028 30.0924 108.007 30.0854 107.971 30.0783C107.943 30.0713 107.908 30.0643 107.866 30.0572C107.824 30.0432 107.782 30.0326 107.739 30.0256C107.704 30.0186 107.68 30.0115 107.666 30.0045C107.659 30.0045 107.634 29.9869 107.592 29.9518C107.55 29.9166 107.504 29.8779 107.455 29.8357C107.412 29.7936 107.367 29.7549 107.318 29.7197C107.275 29.6775 107.251 29.6529 107.244 29.6459C107.089 29.5264 106.924 29.4033 106.748 29.2768C106.579 29.1502 106.411 29.0201 106.242 28.8865C106.073 28.7459 105.911 28.6053 105.757 28.4646C105.602 28.324 105.461 28.1799 105.335 28.0322C105.321 28.0252 105.303 28.0041 105.282 27.9689C105.261 27.9338 105.24 27.8951 105.219 27.8529C105.198 27.8107 105.177 27.7721 105.155 27.7369C105.134 27.7018 105.12 27.6807 105.113 27.6736C105.015 27.526 104.909 27.3748 104.797 27.2201C104.684 27.0654 104.593 26.9002 104.523 26.7244C104.523 26.7104 104.512 26.6611 104.491 26.5768C104.47 26.4924 104.459 26.4432 104.459 26.4291C104.403 26.2463 104.34 26.074 104.269 25.9123C104.199 25.7506 104.139 25.5783 104.09 25.3955C104.034 25.1916 103.985 24.9877 103.943 24.7838C103.9 24.5799 103.851 24.376 103.795 24.1721C103.795 24.1229 103.791 24.0455 103.784 23.94C103.784 23.8346 103.784 23.7256 103.784 23.6131C103.784 23.4936 103.781 23.3811 103.774 23.2756C103.774 23.1701 103.774 23.0963 103.774 23.0541C103.774 22.9838 103.774 22.8889 103.774 22.7693C103.781 22.6498 103.784 22.5338 103.784 22.4213C103.784 22.3018 103.784 22.1998 103.784 22.1154C103.791 22.024 103.795 21.9713 103.795 21.9572C103.816 21.5916 103.897 21.233 104.037 20.8814C104.178 20.5299 104.319 20.1783 104.459 19.8268C104.459 19.8197 104.466 19.7951 104.48 19.7529C104.494 19.7107 104.509 19.6686 104.523 19.6264C104.537 19.5771 104.551 19.5314 104.565 19.4893C104.579 19.4471 104.589 19.4189 104.596 19.4049C104.603 19.3908 104.628 19.3627 104.67 19.3205C104.719 19.2783 104.769 19.2326 104.818 19.1834C104.874 19.1342 104.923 19.0885 104.966 19.0463C105.015 19.0041 105.046 18.9795 105.061 18.9725C105.236 18.7545 105.391 18.5295 105.525 18.2975C105.665 18.0584 105.848 17.8369 106.073 17.633C106.143 17.5627 106.21 17.5135 106.273 17.4854C106.337 17.4502 106.4 17.4221 106.463 17.401C106.527 17.3799 106.59 17.3588 106.653 17.3377C106.723 17.3096 106.801 17.2709 106.885 17.2217C106.885 17.2146 106.896 17.1971 106.917 17.1689C106.945 17.1338 106.973 17.0986 107.001 17.0635C107.036 17.0283 107.068 16.9967 107.096 16.9686C107.131 16.9404 107.156 16.9193 107.17 16.9053C107.191 16.8912 107.233 16.8631 107.296 16.8209C107.36 16.7787 107.427 16.733 107.497 16.6838C107.567 16.6346 107.634 16.5889 107.697 16.5467C107.761 16.5045 107.806 16.4729 107.834 16.4518C107.869 16.4447 107.901 16.4377 107.929 16.4307C107.95 16.4236 107.971 16.4201 107.993 16.4201C108.014 16.4131 108.028 16.4061 108.035 16.399C108.133 16.3568 108.232 16.3041 108.33 16.2408C108.436 16.1705 108.537 16.1037 108.636 16.0404C108.741 15.9701 108.847 15.9139 108.952 15.8717C109.058 15.8225 109.163 15.7979 109.269 15.7979C109.367 15.7979 109.462 15.8119 109.553 15.84C109.645 15.8682 109.74 15.8822 109.838 15.8822H109.944C109.965 15.8822 110.011 15.8717 110.081 15.8506C110.158 15.8225 110.204 15.8084 110.218 15.8084C110.225 15.8084 110.25 15.8084 110.292 15.8084C110.334 15.8084 110.38 15.8084 110.429 15.8084C110.485 15.8014 110.538 15.7979 110.587 15.7979C110.636 15.7979 110.678 15.7979 110.714 15.7979C110.812 15.7979 110.925 15.8049 111.051 15.8189C111.178 15.826 111.304 15.84 111.431 15.8611C111.564 15.8752 111.691 15.8963 111.811 15.9244C111.937 15.9525 112.046 15.9877 112.137 16.0299C112.159 16.0369 112.197 16.0545 112.253 16.0826C112.31 16.1107 112.369 16.1424 112.433 16.1775C112.503 16.2127 112.566 16.2443 112.623 16.2725C112.679 16.3006 112.718 16.3182 112.739 16.3252C112.753 16.3393 112.798 16.3568 112.876 16.3779C112.953 16.392 112.999 16.399 113.013 16.399C113.161 16.4412 113.294 16.5186 113.414 16.6311C113.533 16.7365 113.649 16.8279 113.762 16.9053C113.86 16.9826 113.973 17.0459 114.099 17.0951C114.233 17.1373 114.363 17.1971 114.489 17.2744L114.563 17.3482C114.57 17.3623 114.577 17.3904 114.584 17.4326C114.598 17.4678 114.612 17.5064 114.627 17.5486C114.641 17.5838 114.651 17.6189 114.658 17.6541C114.672 17.6893 114.683 17.7068 114.69 17.7068C114.753 17.8053 114.82 17.865 114.89 17.8861C114.968 17.9072 115.052 17.9459 115.143 18.0021C115.228 18.0584 115.316 18.1393 115.407 18.2447C115.505 18.3502 115.597 18.4662 115.681 18.5928C115.773 18.7193 115.853 18.8494 115.924 18.983C116.001 19.1096 116.057 19.2256 116.093 19.3311C116.107 19.3451 116.117 19.3943 116.124 19.4787C116.138 19.5561 116.145 19.6053 116.145 19.6264C116.166 19.6545 116.184 19.6967 116.198 19.7529C116.212 19.8021 116.226 19.8268 116.24 19.8268C116.254 19.8479 116.279 19.8795 116.314 19.9217C116.356 19.9639 116.402 20.0096 116.451 20.0588C116.5 20.108 116.546 20.1537 116.588 20.1959C116.63 20.2381 116.662 20.2627 116.683 20.2697V20.3225V20.3541L116.641 20.4174C116.62 20.4525 116.609 20.4807 116.609 20.5018V20.5334C116.609 20.7021 116.637 20.8604 116.694 21.008C116.75 21.1486 116.792 21.2963 116.82 21.451C116.869 21.7393 116.905 22.0275 116.926 22.3158C116.954 22.5971 116.968 22.8818 116.968 23.1701V23.7818C116.968 23.8029 116.957 23.8557 116.936 23.94C116.922 24.0174 116.915 24.0631 116.915 24.0771C116.901 24.0912 116.894 24.1158 116.894 24.151C116.894 24.1791 116.894 24.2143 116.894 24.2564C116.894 24.3549 116.898 24.4533 116.905 24.5518C116.912 24.6432 116.915 24.7029 116.915 24.7311C116.908 24.7451 116.894 24.7732 116.873 24.8154C116.859 24.8506 116.841 24.8893 116.82 24.9314C116.806 24.9736 116.792 25.0123 116.778 25.0475C116.764 25.0756 116.757 25.0932 116.757 25.1002C116.757 25.1213 116.753 25.1635 116.746 25.2268C116.739 25.29 116.729 25.3604 116.715 25.4377C116.708 25.508 116.701 25.5748 116.694 25.6381C116.687 25.7014 116.683 25.74 116.683 25.7541C116.683 25.7752 116.673 25.8033 116.652 25.8385C116.637 25.8736 116.623 25.9018 116.609 25.9229C116.602 25.9369 116.585 25.965 116.557 26.0072C116.528 26.0494 116.497 26.0951 116.462 26.1443C116.427 26.1865 116.395 26.2287 116.367 26.2709C116.339 26.3131 116.321 26.3412 116.314 26.3553C116.307 26.3693 116.296 26.3975 116.282 26.4396C116.268 26.4818 116.251 26.5275 116.23 26.5768C116.216 26.626 116.198 26.6717 116.177 26.7139C116.163 26.7561 116.152 26.7842 116.145 26.7982C116.117 26.8686 116.082 26.9494 116.04 27.0408C115.998 27.1322 115.948 27.2271 115.892 27.3256C115.843 27.417 115.79 27.5084 115.734 27.5998C115.678 27.6842 115.628 27.758 115.586 27.8213C115.572 27.8283 115.548 27.8494 115.512 27.8846C115.477 27.9127 115.446 27.9338 115.418 27.9479C115.256 28.0885 115.098 28.2326 114.943 28.3803C114.795 28.5279 114.644 28.6756 114.489 28.8232C114.342 28.9709 114.191 29.115 114.036 29.2557C113.881 29.3963 113.716 29.5264 113.54 29.6459C113.378 29.66 113.252 29.6951 113.161 29.7514C113.076 29.8076 112.96 29.8674 112.812 29.9307C112.791 29.9447 112.753 29.9623 112.696 29.9834C112.647 29.9975 112.605 30.0045 112.57 30.0045C112.289 30.0889 112.011 30.1697 111.737 30.2471C111.462 30.3174 111.181 30.3912 110.893 30.4686C110.816 30.4756 110.742 30.4967 110.671 30.5318C110.608 30.574 110.538 30.5951 110.461 30.5951H110.387C110.373 30.5951 110.334 30.5846 110.271 30.5635C110.214 30.5424 110.179 30.5318 110.165 30.5318C110.13 30.5248 110.063 30.5178 109.965 30.5107C109.866 30.5037 109.761 30.4967 109.648 30.4896C109.536 30.4826 109.43 30.4756 109.332 30.4686C109.234 30.4686 109.163 30.4686 109.121 30.4686ZM118.888 17.6225C118.867 17.6014 118.825 17.5592 118.761 17.4959C118.698 17.4326 118.631 17.3658 118.561 17.2955C118.498 17.2182 118.434 17.1479 118.371 17.0846C118.308 17.0213 118.266 16.9791 118.245 16.958C118.188 16.9158 118.121 16.8877 118.044 16.8736C117.974 16.8596 117.896 16.8455 117.812 16.8314C117.735 16.8174 117.654 16.7893 117.57 16.7471C117.492 16.7049 117.418 16.6311 117.348 16.5256V16.4834C117.348 16.4201 117.369 16.3674 117.411 16.3252C117.454 16.276 117.506 16.2443 117.57 16.2303C117.893 16.174 118.209 16.1318 118.519 16.1037C118.835 16.0756 119.152 16.0404 119.468 15.9982C119.482 15.9982 119.521 15.9877 119.584 15.9666C119.647 15.9455 119.689 15.935 119.711 15.935H119.763H119.837C119.851 15.935 119.879 15.9385 119.921 15.9455C119.971 15.9525 120.02 15.9596 120.069 15.9666C120.118 15.9736 120.161 15.9807 120.196 15.9877C120.238 15.9947 120.262 15.9982 120.27 15.9982C120.319 16.0053 120.396 16.0123 120.502 16.0193C120.607 16.0264 120.727 16.0299 120.86 16.0299C120.987 16.0299 121.106 16.0264 121.219 16.0193C121.331 16.0123 121.412 16.0053 121.461 15.9982C121.602 16.0404 121.711 16.1318 121.788 16.2725C121.873 16.4061 121.915 16.5432 121.915 16.6838C121.915 16.6979 121.911 16.7154 121.904 16.7365C121.904 16.7576 121.904 16.7787 121.904 16.7998C121.897 16.8279 121.894 16.8561 121.894 16.8842C121.887 16.8982 121.862 16.9264 121.82 16.9686C121.785 17.0037 121.746 17.0424 121.704 17.0846C121.662 17.1197 121.623 17.1549 121.588 17.19C121.553 17.2252 121.535 17.2463 121.535 17.2533C121.5 17.3096 121.479 17.3729 121.472 17.4432C121.465 17.5064 121.461 17.5697 121.461 17.633V17.7807V18.0549C121.461 18.0689 121.468 18.09 121.482 18.1182C121.496 18.1463 121.511 18.1779 121.525 18.2131C121.539 18.2412 121.553 18.2693 121.567 18.2975C121.581 18.3256 121.588 18.3432 121.588 18.3502C121.595 18.3643 121.602 18.3924 121.609 18.4346C121.623 18.4697 121.634 18.5084 121.641 18.5506C121.648 18.5857 121.651 18.6209 121.651 18.6561C121.658 18.6912 121.662 18.7088 121.662 18.7088C121.732 18.9408 121.809 19.1658 121.894 19.3838C121.985 19.5947 122.059 19.8162 122.115 20.0482C122.15 20.1889 122.175 20.3471 122.189 20.5229C122.21 20.6986 122.252 20.8568 122.316 20.9975C122.323 20.9975 122.337 21.0115 122.358 21.0396C122.386 21.0678 122.411 21.0994 122.432 21.1346C122.46 21.1627 122.484 21.1943 122.505 21.2295C122.534 21.2576 122.548 21.2752 122.548 21.2822C122.555 21.3033 122.569 21.335 122.59 21.3771C122.618 21.4123 122.643 21.4545 122.664 21.5037C122.692 21.5529 122.713 21.5986 122.727 21.6408C122.748 21.676 122.762 21.7041 122.769 21.7252C122.769 21.7393 122.776 21.7709 122.79 21.8201C122.804 21.8693 122.818 21.9221 122.832 21.9783C122.854 22.0346 122.871 22.0873 122.885 22.1365C122.899 22.1857 122.91 22.2174 122.917 22.2314C122.924 22.2455 122.938 22.2701 122.959 22.3053C122.98 22.3404 123.001 22.3791 123.022 22.4213C123.05 22.4635 123.075 22.5057 123.096 22.5479C123.117 22.583 123.131 22.6076 123.138 22.6217C123.18 22.7131 123.205 22.808 123.212 22.9064C123.226 22.9979 123.251 23.0893 123.286 23.1807C123.321 23.3143 123.377 23.4303 123.455 23.5287C123.539 23.6271 123.602 23.7326 123.645 23.8451C123.659 23.8592 123.673 23.8979 123.687 23.9611C123.708 24.0244 123.718 24.0631 123.718 24.0771C123.725 24.0982 123.743 24.1404 123.771 24.2037C123.806 24.267 123.838 24.3338 123.866 24.4041C123.901 24.4744 123.933 24.5412 123.961 24.6045C123.989 24.6678 124.007 24.71 124.014 24.7311C124.021 24.7451 124.028 24.7803 124.035 24.8365C124.042 24.8857 124.049 24.9385 124.056 24.9947C124.063 25.051 124.07 25.1037 124.077 25.1529C124.084 25.2021 124.087 25.2338 124.087 25.2479C124.095 25.2689 124.112 25.3076 124.14 25.3639C124.175 25.4201 124.211 25.4799 124.246 25.5432C124.288 25.5994 124.33 25.6557 124.372 25.7119C124.414 25.7682 124.446 25.8068 124.467 25.8279C124.601 25.9264 124.759 25.9756 124.942 25.9756C125.026 25.9756 125.1 25.9369 125.163 25.8596C125.234 25.7822 125.293 25.6908 125.343 25.5854C125.399 25.4799 125.445 25.3744 125.48 25.2689C125.515 25.1564 125.543 25.0686 125.564 25.0053C125.585 24.9631 125.617 24.8822 125.659 24.7627C125.701 24.6432 125.747 24.5166 125.796 24.383C125.852 24.2424 125.905 24.1088 125.954 23.9822C126.004 23.8557 126.039 23.7643 126.06 23.708C126.095 23.6166 126.144 23.5322 126.207 23.4549C126.278 23.3705 126.33 23.2791 126.366 23.1807C126.38 23.1666 126.39 23.1209 126.397 23.0436C126.411 22.9592 126.418 22.91 126.418 22.8959C126.425 22.8818 126.432 22.8467 126.439 22.7904C126.454 22.7271 126.464 22.6639 126.471 22.6006C126.478 22.5373 126.482 22.4775 126.482 22.4213C126.489 22.365 126.492 22.3334 126.492 22.3264C126.499 22.3123 126.51 22.2877 126.524 22.2525C126.538 22.2104 126.555 22.1682 126.577 22.126C126.598 22.0838 126.615 22.0486 126.629 22.0205C126.643 21.9854 126.654 21.9643 126.661 21.9572C126.724 21.7744 126.766 21.6092 126.787 21.4615C126.809 21.3068 126.819 21.1275 126.819 20.9236V20.7021C126.819 20.5896 126.812 20.4877 126.798 20.3963C126.791 20.2979 126.77 20.1994 126.735 20.101C126.721 20.0939 126.7 20.0693 126.671 20.0271C126.65 19.985 126.626 19.9393 126.598 19.89C126.577 19.8408 126.555 19.7986 126.534 19.7635C126.513 19.7213 126.499 19.6932 126.492 19.6791C126.492 19.658 126.489 19.6158 126.482 19.5525C126.482 19.4893 126.478 19.4189 126.471 19.3416C126.464 19.2643 126.454 19.1939 126.439 19.1307C126.432 19.0674 126.425 19.0252 126.418 19.0041C126.418 18.9971 126.408 18.9654 126.387 18.9092C126.373 18.8529 126.355 18.7932 126.334 18.7299C126.313 18.6596 126.292 18.5893 126.271 18.5189C126.25 18.4486 126.232 18.3924 126.218 18.3502C126.204 18.3361 126.186 18.315 126.165 18.2869C126.151 18.2518 126.141 18.2307 126.134 18.2236C126.112 18.1885 126.077 18.1322 126.028 18.0549C125.979 17.9705 125.926 17.8861 125.87 17.8018C125.821 17.7104 125.771 17.6295 125.722 17.5592C125.68 17.4818 125.652 17.4291 125.638 17.401C125.589 17.3307 125.508 17.2744 125.395 17.2322C125.283 17.19 125.156 17.1549 125.016 17.1268C124.875 17.0986 124.727 17.074 124.573 17.0529C124.418 17.0248 124.277 16.9967 124.151 16.9686C124.024 16.9404 123.919 16.9053 123.834 16.8631C123.757 16.8139 123.718 16.7506 123.718 16.6732C123.725 16.6521 123.736 16.6311 123.75 16.61C123.764 16.5959 123.775 16.5818 123.782 16.5678C123.789 16.5467 123.799 16.5326 123.813 16.5256C123.933 16.3709 124.07 16.2549 124.225 16.1775C124.379 16.0932 124.541 16.0334 124.71 15.9982C124.886 15.9631 125.061 15.9385 125.237 15.9244C125.42 15.9104 125.596 15.8928 125.764 15.8717C125.779 15.8717 125.803 15.8682 125.838 15.8611C125.88 15.8541 125.923 15.8471 125.965 15.84C126.007 15.826 126.042 15.8154 126.07 15.8084C126.105 15.8014 126.127 15.7979 126.134 15.7979H126.334H126.439C126.489 15.7979 126.534 15.8014 126.577 15.8084C126.626 15.8154 126.679 15.8365 126.735 15.8717H127.41C127.775 15.8717 128.137 15.8752 128.496 15.8822C128.855 15.8893 129.213 15.9068 129.572 15.935C129.656 15.9701 129.705 16.0439 129.72 16.1564C129.734 16.2619 129.741 16.3533 129.741 16.4307V16.5256C129.698 16.617 129.642 16.6803 129.572 16.7154C129.502 16.7506 129.424 16.7752 129.34 16.7893C129.262 16.7963 129.178 16.7998 129.087 16.7998C129.002 16.7998 128.921 16.8068 128.844 16.8209C128.837 16.8209 128.816 16.8314 128.781 16.8525C128.746 16.8666 128.718 16.8771 128.696 16.8842C128.675 16.9053 128.644 16.9334 128.602 16.9686C128.566 17.0037 128.531 17.0424 128.496 17.0846C128.461 17.1268 128.426 17.1654 128.391 17.2006C128.362 17.2287 128.345 17.2463 128.338 17.2533C128.289 17.3096 128.261 17.3764 128.254 17.4537C128.246 17.524 128.243 17.5979 128.243 17.6752C128.243 17.6893 128.243 17.7209 128.243 17.7701C128.25 17.8123 128.264 17.8404 128.285 17.8545C128.292 17.9037 128.313 17.9916 128.348 18.1182C128.391 18.2447 128.433 18.3783 128.475 18.5189C128.524 18.6525 128.57 18.7826 128.612 18.9092C128.654 19.0357 128.682 19.1236 128.696 19.1729C128.704 19.1869 128.718 19.215 128.739 19.2572C128.767 19.2994 128.795 19.3451 128.823 19.3943C128.851 19.4365 128.872 19.4787 128.886 19.5209C128.907 19.5631 128.918 19.5912 128.918 19.6053C128.995 19.7811 129.034 19.9498 129.034 20.1115C129.041 20.2732 129.052 20.4455 129.066 20.6283C129.08 20.7197 129.108 20.8006 129.15 20.8709C129.199 20.9412 129.252 21.008 129.308 21.0713C129.364 21.1346 129.417 21.2014 129.466 21.2717C129.516 21.342 129.551 21.4193 129.572 21.5037C129.579 21.5178 129.586 21.56 129.593 21.6303C129.6 21.7006 129.607 21.7779 129.614 21.8623C129.628 21.9467 129.639 22.024 129.646 22.0943C129.653 22.1646 129.66 22.2104 129.667 22.2314C129.667 22.2525 129.674 22.3018 129.688 22.3791C129.709 22.4494 129.727 22.4986 129.741 22.5268C129.748 22.5549 129.762 22.6076 129.783 22.685C129.811 22.7553 129.839 22.8326 129.867 22.917C129.902 23.0014 129.934 23.0857 129.962 23.1701C129.99 23.2475 130.015 23.3072 130.036 23.3494C130.036 23.3635 130.043 23.3846 130.057 23.4127C130.071 23.4408 130.089 23.4619 130.11 23.476C130.145 23.5463 130.194 23.6588 130.257 23.8135C130.328 23.9682 130.402 24.1264 130.479 24.2881C130.563 24.4428 130.648 24.5799 130.732 24.6994C130.816 24.8189 130.894 24.8787 130.964 24.8787C131.02 24.8787 131.055 24.8752 131.07 24.8682C131.091 24.8611 131.133 24.84 131.196 24.8049C131.224 24.7908 131.259 24.7697 131.302 24.7416C131.351 24.7135 131.393 24.6854 131.428 24.6572C131.47 24.6291 131.516 24.601 131.565 24.5729C131.579 24.5588 131.59 24.5131 131.597 24.4357C131.611 24.3584 131.618 24.3057 131.618 24.2775C131.737 23.9611 131.843 23.6412 131.934 23.3178C132.033 22.9873 132.128 22.6568 132.219 22.3264C132.268 22.1506 132.335 21.9783 132.42 21.8096C132.504 21.6338 132.56 21.458 132.588 21.2822C132.595 21.2611 132.602 21.2119 132.609 21.1346C132.616 21.0502 132.623 20.9658 132.63 20.8814C132.637 20.79 132.645 20.7057 132.652 20.6283C132.659 20.5439 132.662 20.4912 132.662 20.4701C132.662 20.449 132.669 20.3928 132.683 20.3014C132.704 20.2029 132.715 20.1361 132.715 20.101C132.736 20.0307 132.768 19.9639 132.81 19.9006C132.859 19.8373 132.908 19.7775 132.957 19.7213C133.007 19.658 133.049 19.5947 133.084 19.5314C133.126 19.4682 133.154 19.3979 133.168 19.3205V18.9514V18.7826C133.168 18.7826 133.175 18.765 133.189 18.7299C133.204 18.6947 133.221 18.6561 133.242 18.6139C133.263 18.5717 133.281 18.533 133.295 18.4979C133.309 18.4557 133.316 18.4311 133.316 18.424C133.351 18.3045 133.376 18.2061 133.39 18.1287C133.404 18.0443 133.411 17.9424 133.411 17.8229C133.411 17.5697 133.355 17.3904 133.242 17.285C133.13 17.1795 132.993 17.1021 132.831 17.0529C132.669 16.9967 132.5 16.9475 132.325 16.9053C132.149 16.8631 131.994 16.7857 131.861 16.6732C131.839 16.6592 131.811 16.6346 131.776 16.5994C131.741 16.5643 131.702 16.5291 131.66 16.4939C131.625 16.4518 131.59 16.4131 131.555 16.3779C131.52 16.3428 131.498 16.3182 131.491 16.3041V16.2303C131.491 16.1037 131.53 16.0088 131.607 15.9455C131.685 15.8752 131.776 15.826 131.882 15.7979C131.994 15.7627 132.107 15.7416 132.219 15.7346C132.339 15.7275 132.437 15.724 132.514 15.724C132.571 15.717 132.669 15.71 132.81 15.7029C132.957 15.6959 133.112 15.6889 133.274 15.6818C133.443 15.6748 133.597 15.6678 133.738 15.6607C133.886 15.6537 133.987 15.6432 134.044 15.6291C134.065 15.6291 134.104 15.6256 134.16 15.6186C134.216 15.6045 134.251 15.5904 134.265 15.5764C134.279 15.5764 134.304 15.5693 134.339 15.5553C134.374 15.5412 134.413 15.5236 134.455 15.5025C134.497 15.4814 134.532 15.4639 134.561 15.4498C134.596 15.4357 134.62 15.4287 134.634 15.4287C134.648 15.4287 134.677 15.4357 134.719 15.4498C134.761 15.4639 134.807 15.4814 134.856 15.5025C134.905 15.5236 134.951 15.5412 134.993 15.5553C135.035 15.5693 135.06 15.5764 135.067 15.5764C135.2 15.6115 135.33 15.6326 135.457 15.6396C135.584 15.6396 135.71 15.6396 135.837 15.6396C135.97 15.6396 136.1 15.6467 136.227 15.6607C136.354 15.6678 136.484 15.6889 136.617 15.724C136.631 15.724 136.677 15.7416 136.754 15.7768C136.832 15.8049 136.884 15.8365 136.912 15.8717C136.962 15.9068 137.036 15.949 137.134 15.9982C137.239 16.0475 137.31 16.1002 137.345 16.1564V16.4096C137.345 16.5994 137.313 16.7365 137.25 16.8209C137.187 16.9053 137.106 16.965 137.007 17.0002C136.909 17.0283 136.793 17.0459 136.659 17.0529C136.526 17.06 136.392 17.0846 136.259 17.1268C136.245 17.1268 136.216 17.1373 136.174 17.1584C136.132 17.1725 136.083 17.1936 136.027 17.2217C135.977 17.2428 135.928 17.2639 135.879 17.285C135.837 17.3061 135.809 17.3201 135.795 17.3271C135.787 17.3412 135.756 17.3588 135.7 17.3799C135.643 17.3939 135.608 17.401 135.594 17.401C135.496 17.4572 135.415 17.5346 135.352 17.633C135.295 17.7244 135.243 17.8264 135.193 17.9389C135.144 18.0514 135.098 18.1639 135.056 18.2764C135.021 18.3889 134.982 18.4908 134.94 18.5822C134.926 18.5963 134.898 18.6314 134.856 18.6877C134.814 18.7439 134.789 18.7756 134.782 18.7826C134.705 18.9232 134.641 19.0709 134.592 19.2256C134.55 19.3803 134.504 19.535 134.455 19.6896C134.406 19.8443 134.35 19.9955 134.286 20.1432C134.223 20.2908 134.142 20.4279 134.044 20.5545C134.016 20.9061 133.98 21.2295 133.938 21.5248C133.896 21.8131 133.812 22.1225 133.685 22.4529C133.643 22.5654 133.594 22.6674 133.537 22.7588C133.481 22.8502 133.425 22.9416 133.369 23.033C133.32 23.1244 133.27 23.2193 133.221 23.3178C133.179 23.4092 133.144 23.5111 133.116 23.6236C133.102 23.6377 133.095 23.6904 133.095 23.7818C133.095 23.8592 133.098 23.9365 133.105 24.0139C133.112 24.0912 133.116 24.1369 133.116 24.151C133.08 24.2494 133.031 24.3549 132.968 24.4674C132.912 24.5799 132.848 24.6959 132.778 24.8154C132.715 24.9279 132.652 25.0404 132.588 25.1529C132.525 25.2654 132.476 25.3709 132.441 25.4693C132.427 25.4975 132.412 25.5396 132.398 25.5959C132.384 25.6451 132.367 25.6697 132.346 25.6697C132.346 25.6908 132.342 25.733 132.335 25.7963C132.335 25.8596 132.332 25.9299 132.325 26.0072C132.318 26.0846 132.311 26.1549 132.304 26.2182C132.304 26.2814 132.3 26.3236 132.293 26.3447C132.293 26.3518 132.279 26.3764 132.251 26.4186C132.23 26.4537 132.219 26.4748 132.219 26.4818C132.212 26.5029 132.198 26.5416 132.177 26.5979C132.156 26.6541 132.145 26.6893 132.145 26.7033C132.145 26.7174 132.138 26.7561 132.124 26.8193C132.11 26.8756 132.093 26.9389 132.071 27.0092C132.057 27.0725 132.04 27.1357 132.019 27.199C132.005 27.2553 131.994 27.2869 131.987 27.2939C131.987 27.2939 131.98 27.3115 131.966 27.3467C131.959 27.3748 131.945 27.4064 131.924 27.4416C131.91 27.4697 131.896 27.5014 131.882 27.5365C131.868 27.5646 131.861 27.5787 131.861 27.5787C131.839 27.6139 131.815 27.6631 131.787 27.7264C131.766 27.7826 131.741 27.8389 131.713 27.8951C131.685 27.9654 131.653 28.0322 131.618 28.0955C131.618 28.1166 131.614 28.1588 131.607 28.2221C131.6 28.2854 131.593 28.3521 131.586 28.4225C131.586 28.4928 131.583 28.5596 131.576 28.6229C131.569 28.6861 131.565 28.7283 131.565 28.7494C131.544 28.8689 131.516 29.0166 131.481 29.1924C131.446 29.3682 131.393 29.5404 131.323 29.7092C131.259 29.8709 131.179 30.0115 131.08 30.1311C130.982 30.2436 130.859 30.2998 130.711 30.2998H130.584C130.535 30.2998 130.486 30.2963 130.437 30.2893C130.395 30.2822 130.352 30.2611 130.31 30.226C130.261 30.1768 130.191 30.11 130.099 30.0256C130.008 29.9342 129.955 29.8744 129.941 29.8463C129.934 29.8393 129.916 29.8006 129.888 29.7303C129.86 29.66 129.825 29.5791 129.783 29.4877C129.748 29.3963 129.709 29.3049 129.667 29.2135C129.625 29.115 129.593 29.0377 129.572 28.9814C129.48 28.7424 129.428 28.5104 129.414 28.2854C129.407 28.0604 129.371 27.8248 129.308 27.5787C129.231 27.3678 129.157 27.1779 129.087 27.0092C129.023 26.8334 128.943 26.64 128.844 26.4291C128.76 26.2041 128.686 25.9756 128.623 25.7436C128.559 25.5045 128.493 25.2689 128.422 25.0369C128.359 24.8049 128.285 24.5764 128.201 24.3514C128.116 24.1264 128.011 23.9119 127.884 23.708C127.849 23.6377 127.821 23.5955 127.8 23.5814C127.779 23.5604 127.74 23.5498 127.684 23.5498C127.628 23.5498 127.582 23.5604 127.547 23.5814C127.519 23.5955 127.491 23.6377 127.462 23.708C127.448 23.7221 127.427 23.7537 127.399 23.8029C127.378 23.8521 127.35 23.9084 127.315 23.9717C127.287 24.035 127.255 24.0947 127.22 24.151C127.192 24.2072 127.167 24.2494 127.146 24.2775C127.139 24.3127 127.125 24.3584 127.104 24.4146C127.083 24.4709 127.058 24.5271 127.03 24.5834C127.009 24.6326 126.988 24.6783 126.967 24.7205C126.953 24.7627 126.946 24.7908 126.946 24.8049C126.946 24.8189 126.939 24.8471 126.925 24.8893C126.918 24.9314 126.911 24.9771 126.904 25.0264C126.896 25.0756 126.889 25.1213 126.882 25.1635C126.875 25.2057 126.872 25.2338 126.872 25.2479C126.865 25.2549 126.844 25.2795 126.809 25.3217C126.773 25.3639 126.735 25.4096 126.693 25.4588C126.65 25.501 126.608 25.5467 126.566 25.5959C126.531 25.6381 126.506 25.6627 126.492 25.6697C126.415 25.8104 126.362 25.9475 126.334 26.0811C126.306 26.2076 126.267 26.3412 126.218 26.4818C126.155 26.6576 126.095 26.8439 126.039 27.0408C125.989 27.2377 125.93 27.417 125.859 27.5787C125.852 27.5928 125.838 27.6244 125.817 27.6736C125.796 27.7229 125.771 27.7756 125.743 27.8318C125.722 27.8881 125.701 27.9443 125.68 28.0006C125.659 28.0498 125.645 28.0814 125.638 28.0955C125.546 28.3205 125.473 28.5455 125.416 28.7705C125.367 28.9955 125.307 29.217 125.237 29.435C125.174 29.6529 125.089 29.8604 124.984 30.0572C124.879 30.2541 124.731 30.4334 124.541 30.5951C124.527 30.5951 124.481 30.6162 124.404 30.6584C124.327 30.7006 124.27 30.7287 124.235 30.7428H124.193H124.172C124.144 30.7428 124.112 30.7287 124.077 30.7006C124.049 30.6795 124.028 30.6689 124.014 30.6689C123.993 30.6479 123.957 30.6127 123.908 30.5635C123.859 30.5213 123.81 30.4756 123.761 30.4264C123.718 30.3771 123.676 30.335 123.634 30.2998C123.599 30.2646 123.578 30.24 123.571 30.226C123.571 30.2119 123.56 30.1768 123.539 30.1205C123.518 30.0572 123.493 29.9939 123.465 29.9307C123.437 29.8604 123.412 29.7971 123.391 29.7408C123.37 29.6846 123.36 29.6529 123.36 29.6459C123.24 29.3576 123.117 29.0764 122.991 28.8021C122.864 28.5279 122.741 28.2432 122.621 27.9479C122.544 27.758 122.481 27.5646 122.432 27.3678C122.382 27.1709 122.326 26.9811 122.263 26.7982C122.087 26.3342 121.925 25.8771 121.778 25.4271C121.63 24.9771 121.468 24.5271 121.293 24.0771C121.293 24.0631 121.282 24.035 121.261 23.9928C121.247 23.9436 121.226 23.8943 121.198 23.8451C121.177 23.7889 121.155 23.7396 121.134 23.6975C121.113 23.6553 121.099 23.6307 121.092 23.6236C121.078 23.5955 121.05 23.5287 121.008 23.4232C120.966 23.3107 120.937 23.2299 120.923 23.1807C120.923 23.1736 120.916 23.142 120.902 23.0857C120.895 23.0295 120.885 22.9697 120.871 22.9064C120.857 22.8361 120.843 22.7729 120.829 22.7166C120.814 22.6604 120.804 22.6287 120.797 22.6217C120.79 22.6006 120.765 22.5619 120.723 22.5057C120.688 22.4424 120.649 22.3791 120.607 22.3158C120.565 22.2455 120.526 22.1822 120.491 22.126C120.456 22.0697 120.438 22.0346 120.438 22.0205C120.417 21.9994 120.4 21.9713 120.386 21.9361C120.371 21.901 120.364 21.8799 120.364 21.8729C120.357 21.8588 120.35 21.8271 120.343 21.7779C120.336 21.7287 120.326 21.676 120.312 21.6197C120.305 21.5564 120.298 21.5002 120.291 21.451C120.284 21.4018 120.277 21.3701 120.27 21.3561C120.192 21.0607 120.09 20.7689 119.964 20.4807C119.837 20.1924 119.728 19.9006 119.637 19.6053C119.63 19.5912 119.623 19.5631 119.616 19.5209C119.609 19.4717 119.598 19.4225 119.584 19.3732C119.577 19.324 119.57 19.2783 119.563 19.2361C119.556 19.1939 119.549 19.1729 119.542 19.1729C119.542 19.1588 119.531 19.1342 119.51 19.099C119.496 19.0639 119.482 19.0322 119.468 19.0041C119.341 18.765 119.225 18.5436 119.12 18.3396C119.021 18.1287 118.944 17.8896 118.888 17.6225Z" fill="#2E3A5B"/>
<mask id="path-2-inside-1_2024_164" fill="white">
<path fill-rule="evenodd" clip-rule="evenodd" d="M171.2 0H4.8V10.4224C1.79808 14.1321 0 18.8561 0 24C0 29.1439 1.79808 33.8679 4.8 37.5776V48H171.2V37.5776C174.202 33.8679 176 29.1439 176 24C176 18.8561 174.202 14.1321 171.2 10.4224V0Z"/>
</mask>
<path fill-rule="evenodd" clip-rule="evenodd" d="M171.2 0H4.8V10.4224C1.79808 14.1321 0 18.8561 0 24C0 29.1439 1.79808 33.8679 4.8 37.5776V48H171.2V37.5776C174.202 33.8679 176 29.1439 176 24C176 18.8561 174.202 14.1321 171.2 10.4224V0Z" fill="#EAE5DA"/>
<path d="M4.8 0V-2.4H2.4V0H4.8ZM171.2 0H173.6V-2.4H171.2V0ZM4.8 10.4224L6.66568 11.9321L7.2 11.2718V10.4224H4.8ZM4.8 37.5776H7.2V36.7282L6.66568 36.0679L4.8 37.5776ZM4.8 48H2.4V50.4H4.8V48ZM171.2 48V50.4H173.6V48H171.2ZM171.2 37.5776L169.334 36.0679L168.8 36.7282V37.5776H171.2ZM171.2 10.4224H168.8V11.2718L169.334 11.9321L171.2 10.4224ZM4.8 2.4H171.2V-2.4H4.8V2.4ZM7.2 10.4224V0H2.4V10.4224H7.2ZM2.4 24C2.4 19.4254 3.99687 15.2302 6.66568 11.9321L2.93432 8.91269C-0.400705 13.0341 -2.4 18.2868 -2.4 24H2.4ZM6.66568 36.0679C3.99687 32.7698 2.4 28.5746 2.4 24H-2.4C-2.4 29.7132 -0.400706 34.9659 2.93432 39.0873L6.66568 36.0679ZM7.2 48V37.5776H2.4V48H7.2ZM171.2 45.6H4.8V50.4H171.2V45.6ZM168.8 37.5776V48H173.6V37.5776H168.8ZM173.6 24C173.6 28.5746 172.003 32.7698 169.334 36.0679L173.066 39.0873C176.401 34.9659 178.4 29.7132 178.4 24H173.6ZM169.334 11.9321C172.003 15.2302 173.6 19.4254 173.6 24H178.4C178.4 18.2868 176.401 13.0341 173.066 8.91268L169.334 11.9321ZM168.8 0V10.4224H173.6V0H168.8Z" fill="#EAE5DA" mask="url(#path-2-inside-1_2024_164)"/>
<mask id="path-4-inside-2_2024_164" fill="white">
<path fill-rule="evenodd" clip-rule="evenodd" d="M168.799 2.3999H7.19941V12.2423C4.23017 15.2724 2.39941 19.4224 2.39941 23.9999C2.39941 28.5774 4.23017 32.7274 7.19941 35.7575V45.5999H168.799V35.7575C171.769 32.7274 173.599 28.5774 173.599 23.9999C173.599 19.4224 171.769 15.2724 168.799 12.2423V2.3999Z"/>
</mask>
<path d="M7.19941 2.3999V1.1999H5.99941V2.3999H7.19941ZM168.799 2.3999H169.999V1.1999H168.799V2.3999ZM7.19941 12.2423L8.0565 13.0822L8.39941 12.7323V12.2423H7.19941ZM7.19941 35.7575H8.39941V35.2675L8.0565 34.9176L7.19941 35.7575ZM7.19941 45.5999H5.99941V46.7999H7.19941V45.5999ZM168.799 45.5999V46.7999H169.999V45.5999H168.799ZM168.799 35.7575L167.942 34.9176L167.599 35.2675V35.7575H168.799ZM168.799 12.2423H167.599V12.7323L167.942 13.0822L168.799 12.2423ZM7.19941 3.5999H168.799V1.1999H7.19941V3.5999ZM8.39941 12.2423V2.3999H5.99941V12.2423H8.39941ZM3.59941 23.9999C3.59941 19.7489 5.29814 15.8971 8.0565 13.0822L6.34233 11.4025C3.16219 14.6478 1.19941 19.0958 1.19941 23.9999H3.59941ZM8.0565 34.9176C5.29814 32.1027 3.59941 28.2509 3.59941 23.9999H1.19941C1.19941 28.904 3.16219 33.352 6.34232 36.5973L8.0565 34.9176ZM8.39941 45.5999V35.7575H5.99941V45.5999H8.39941ZM168.799 44.3999H7.19941V46.7999H168.799V44.3999ZM167.599 35.7575V45.5999H169.999V35.7575H167.599ZM172.399 23.9999C172.399 28.2509 170.701 32.1027 167.942 34.9176L169.656 36.5973C172.837 33.352 174.799 28.904 174.799 23.9999H172.399ZM167.942 13.0822C170.701 15.8971 172.399 19.7489 172.399 23.9999H174.799C174.799 19.0958 172.837 14.6478 169.656 11.4025L167.942 13.0822ZM167.599 2.3999V12.2423H169.999V2.3999H167.599Z" fill="#D2BFA1" mask="url(#path-4-inside-2_2024_164)"/>
<text x="50%" y="50%" font-family="IM_Fell_DW_Pica" font-size="24" fill="#2E3A5B" text-anchor="middle" alignment-baseline="middle">BUY NOW</text>
<path d="M16.8001 16.7998L18.8366 21.9633L24.0001 23.9998L18.8366 26.0363L16.8001 31.1998L14.7636 26.0363L9.6001 23.9998L14.7636 21.9633L16.8001 16.7998Z" fill="#D2BFA1"/>
<path d="M159.199 16.7998L161.235 21.9633L166.399 23.9998L161.235 26.0363L159.199 31.1998L157.163 26.0363L151.999 23.9998L157.163 21.9633L159.199 16.7998Z" fill="#D2BFA1"/>
</svg>
